ply
format ascii 1.0
element vertex 343
property float x
property float y
property float z
element edge 343
property int vertex1
property int vertex2
property uchar red
property uchar green
property uchar blue
end_header
0.3676883081 -0.1537968190 -0.8621836402
0.3791704264 -0.1367889070 -0.8718028690
0.3418945412 -0.1555237536 -0.8847376520
0.3373988063 -0.1589835217 -0.8848446974
0.3319882842 -0.1647442519 -0.8830402263
0.2749145724 -0.2319277564 -0.8562387877
0.2550189788 -0.2562925050 -0.8457520083
0.2122356087 -0.3328586144 -0.7939382686
0.2035106237 -0.3484798636 -0.7833634348
0.1862879801 -0.3856136232 -0.7548645954
0.1671114073 -0.4366889791 -0.7113549113
0.1195891278 -0.5789487497 -0.5845400785
0.1194939255 -0.5822617339 -0.5806203338
0.1262942400 -0.7197635805 -0.4076629567
0.1448479756 -0.7550642057 -0.3472007889
0.1646126732 -0.7918998096 -0.2837233596
0.1822663974 -0.8097066817 -0.2452990810
0.2475750564 -0.8243858110 -0.1651293693
0.2839621535 -0.8378532061 -0.1140596781
0.3288251072 -0.8291133661 -0.0817758586
0.4190476686 -0.8000970511 -0.0306999657
0.4353605243 -0.7884085527 -0.0292639758
0.4346727167 -0.7809027338 -0.0390077011
0.3922647468 -0.7225904137 -0.1501193913
0.3805997170 -0.7099720834 -0.1765405153
0.3634068237 -0.6858866115 -0.2221253792
0.3070575751 -0.6033659233 -0.3758639579
0.2898985355 -0.5483275731 -0.4588880947
0.2680276675 -0.4500218564 -0.5987937093
0.2774951360 -0.3977624295 -0.6530133912
0.3029180429 -0.2918875761 -0.7568954034
0.3541944320 -0.1755898740 -0.8486936402
0.3628888679 -0.1603326394 -0.8588569852
0.2095412704 -0.3288722160 -0.2753753288
0.2004626060 -0.3026134181 -0.2308471402
0.1810523251 -0.1841978857 -0.0389976221
0.1801448826 -0.1681940611 -0.0137827064
0.1809875283 -0.1646249391 -0.0085938996
0.1897746902 -0.0699381544 0.1347039839
0.1918605889 -0.0655022901 0.1407209821
0.1938405225 -0.0473907161 0.1680064410
0.2006717686 -0.0180639557 0.2106803327
0.1966166550 -0.0099771963 0.2249170132
0.1975068884 0.0271845576 0.2822210506
0.1623099984 0.0553116812 0.3405093979
0.1603217980 0.0735753286 0.3696809125
0.0879749412 0.1033786612 0.4460185092
0.0596529431 0.1028937707 0.4570429079
0.0057863412 0.0836997908 0.4496532486
-0.0245971614 0.0736098736 0.4466280801
-0.0581053407 0.0634397567 0.4447777556
-0.0759547527 0.0603496764 0.4474042155
-0.1603405771 0.0384168658 0.4484545461
-0.2263438619 0.0339629032 0.4689877782
-0.3249520242 0.0205218499 0.4891311027
-0.3853933854 0.0119381449 0.5009422905
-0.4656307597 -0.0068539093 0.5051419845
-0.5116190222 -0.0283456458 0.4909102636
-0.5457946217 -0.0575640754 0.4597749094
-0.5843564247 -0.1152954251 0.3862120207
-0.5872995116 -0.1584844090 0.3204074799
-0.5701681159 -0.2532103688 0.1662712654
-0.5610050251 -0.2689777355 0.1379904387
-0.5366030659 -0.3100673721 0.0640733393
-0.5173632357 -0.3380673742 0.0126175941
-0.4655300713 -0.3752687693 -0.0666715664
-0.4090586914 -0.4146373503 -0.1512528279
-0.3597965113 -0.4346977335 -0.2028704442
-0.3018507051 -0.4613842888 -0.2683825838
-0.2655841038 -0.4760377233 -0.3062048753
-0.2364951788 -0.4869020319 -0.3351618849
-0.1675230719 -0.5058790759 -0.3932940234
-0.0702339655 -0.5329656235 -0.4757867909
-0.0480953760 -0.5369915216 -0.4912406298
0.0365660932 -0.5508198467 -0.5479060685
0.1022366208 -0.5600983406 -0.5896134000
0.1111346049 -0.5604371428 -0.5938391999
0.1192999720 -0.5610378203 -0.5981667854
0.2306219681 -0.5589825036 -0.6412672246
0.2451684699 -0.5583191791 -0.6462865296
0.3313785433 -0.5467471086 -0.6641750635
0.3390219963 -0.5453090357 -0.6651215297
0.3015074960 -0.5196743040 -0.6097376037
0.2931003499 -0.5115553094 -0.5936412196
0.2545366275 -0.4541652526 -0.4885374436
0.2424394037 -0.4292785710 -0.4448835625
0.2423504275 -0.4297034463 -0.2838051883
0.2166979157 -0.3551415260 -0.1673784458
0.2016837062 -0.2655251130 -0.0285118754
0.1887512145 -0.2210787214 0.0407309638
0.1936931597 -0.1543423687 0.1430553512
0.1872617913 -0.1275464911 0.1847083921
0.1939823313 -0.0994286071 0.2275074973
0.1763641925 -0.0597852582 0.2896782064
0.1764438914 -0.0565567007 0.2946391900
0.1687433380 -0.0482987038 0.3078617927
0.1335880488 -0.0110822196 0.3674828056
0.0741073097 0.0101413486 0.4041440964
0.0428377443 0.0155114908 0.4145149261
0.0008971681 0.0161215732 0.4182836530
-0.0662887864 0.0234085768 0.4340268479
-0.1367308646 0.0253010462 0.4416915767
-0.2253708705 0.0388368795 0.4684948746
-0.2776660567 0.0430307438 0.4784751474
-0.3937667984 0.0512470968 0.4989488231
-0.4402081850 0.0504055544 0.5007882998
-0.5288078502 0.0257601575 0.4688562041
-0.5404102673 0.0182349331 0.4580634119
-0.6002535305 -0.0599198451 0.3418794004
-0.6018167149 -0.0823599954 0.3074660955
-0.5860796789 -0.1691742242 0.1728612357
-0.5785284558 -0.2052955871 0.1167876000
-0.5658934594 -0.2254457172 0.0849388114
-0.5211069954 -0.2962988187 -0.0270740121
-0.4844213160 -0.3274946926 -0.0775370340
-0.4056832661 -0.3929411527 -0.1835241787
-0.3732404861 -0.4102771626 -0.2123807996
-0.3234927007 -0.4392851998 -0.2603598245
-0.2685690910 -0.4688740611 -0.3095815865
-0.2358762505 -0.4855499340 -0.3374396196
-0.1615603296 -0.5157186881 -0.3888620521
-0.0765895579 -0.5504656706 -0.4480460094
-0.0261285867 -0.5659931688 -0.4753365839
0.1089796314 -0.6053318729 -0.5449672122
0.1437722483 -0.6115126808 -0.5568228017
0.2532602837 -0.6261793938 -0.5867725672
0.2809909281 -0.6263886757 -0.5889658348
0.3586712654 -0.6224263736 -0.5881128578
0.3358187908 -0.6042583085 -0.5586234987
0.3086779022 -0.5754709219 -0.5125094652
0.2877792914 -0.5426844120 -0.4606649844
0.2607946339 -0.4860268653 -0.3716899326
0.2531058816 0.2196713820 -0.3686133487
0.2541490528 0.2239233954 -0.3639481068
0.3126168272 0.3848106571 -0.1830163805
0.3524876675 0.4767736204 -0.0780989099
0.3662745811 0.5140176637 -0.0361562297
0.3910589059 0.5681507647 0.0259075475
0.3923330374 0.5881654457 0.0470234361
0.3905204359 0.6110958626 0.0704560226
0.3700303470 0.6496689290 0.1058260470
0.3687042933 0.6533374193 0.1093344210
0.3669046326 0.6563428732 0.1120431573
0.3390974765 0.6822532797 0.1325427275
0.3317406446 0.6880651846 0.1368811279
0.2801260832 0.7075857400 0.1452083509
0.2222357014 0.7260811175 0.1510126156
0.1381691481 0.7449079869 0.1510866257
0.0358860954 0.7625726979 0.1457239359
-0.0020729834 0.7687308883 0.1433202464
-0.0918151387 0.7804678304 0.1347017713
-0.1456847857 0.7806608585 0.1224002499
-0.1975099184 0.7824044705 0.1121862168
-0.2321727518 0.7779160465 0.0994724423
-0.3473958914 0.7584103832 0.0524402416
-0.4039566857 0.7368908344 0.0169277353
-0.4210294709 0.7294776846 0.0052539080
-0.4304510768 0.7248409943 -0.0017559984
-0.4933107915 0.6773814417 -0.0657143601
-0.4971020994 0.6723301692 -0.0718488281
-0.5292154570 0.6154790180 -0.1384410008
-0.5370775601 0.5945568765 -0.1620298382
-0.5453243367 0.5342275908 -0.2267010577
-0.5381609874 0.4494549068 -0.3132229591
-0.5293678226 0.4027220431 -0.3597958527
-0.5153601121 0.3685776401 -0.3920634404
-0.4207918559 0.1959827617 -0.5496566491
-0.4070389774 0.1780725003 -0.5650958864
-0.3795056395 0.1492684087 -0.5886691486
-0.2606152276 0.0313994689 -0.6836891459
-0.1266173215 -0.0702838974 -0.7583659554
-0.1197688605 -0.0743485229 -0.7610047412
-0.1169189381 -0.0758746006 -0.7619308134
0.0118192859 -0.1382577084 -0.7969463966
0.0958574381 -0.1879974473 -0.8291839721
0.0990537539 -0.1893040555 -0.8298013496
0.1023782135 -0.1909277268 -0.8307188104
0.1733058841 -0.2206264242 -0.8451515239
0.1939340300 -0.2268337532 -0.8468211940
0.2400471809 -0.2406988653 -0.8505421604
0.2758205817 -0.2483249920 -0.8501727474
0.2910856472 -0.2511804797 -0.8496003684
0.3350956464 -0.2533507956 -0.8416439846
0.3504489969 -0.2518104858 -0.8364784073
0.3153664193 -0.1943250963 -0.7848216160
0.2757416562 -0.0719186808 -0.6666851897
0.2602612156 0.0061032414 -0.5891160072
0.2529318026 0.2153496880 -0.3731493726
0.3281602937 -0.6009600398 -0.0883573741
0.2858045012 -0.5013561278 0.0583278007
0.2728842886 -0.4612368815 0.1198592957
0.2298162602 -0.3650216282 0.2602806297
0.2290088386 -0.3535801000 0.2795302781
0.2260319129 -0.3463267933 0.2902756804
0.1954898155 -0.2960464530 0.3589051380
0.1903101932 -0.2910605834 0.3644384255
0.1563315591 -0.2585629893 0.4003750313
0.1155304443 -0.2303209585 0.4249395328
0.1005835562 -0.2202237715 0.4335092899
0.0619791642 -0.2004167401 0.4448295400
0.0296844442 -0.1851448411 0.4520619569
-0.0066994021 -0.1659023161 0.4637221221
-0.0793335580 -0.1351508112 0.4737874694
-0.1225915039 -0.1138046992 0.4850092673
-0.1787642587 -0.0920109453 0.4893651166
-0.2525156639 -0.0621236592 0.4972796665
-0.2817225148 -0.0539473655 0.4941041968
-0.3813799065 -0.0137239377 0.5045193411
-0.3844234202 -0.0131073145 0.5037825848
-0.3903782870 -0.0117897992 0.5025325253
-0.4573218899 0.0118602231 0.5037190681
-0.5261027371 0.0172451896 0.4723269891
-0.5407084484 0.0140372461 0.4581581933
-0.6059159840 -0.0401953965 0.3260883877
-0.6073462652 -0.0533644812 0.3025367689
-0.5978741660 -0.1057234323 0.2178627282
-0.5823598608 -0.1794767756 0.0998744254
-0.5567628537 -0.2233177573 0.0394230206
-0.5224147573 -0.2817083189 -0.0409389966
-0.4889968836 -0.3159235376 -0.0801687125
-0.4066173683 -0.3989452749 -0.1745935293
-0.3615443405 -0.4315228550 -0.2041068699
-0.2493305536 -0.5170123833 -0.2851427272
-0.2461871894 -0.5187793625 -0.2863303304
-0.2199079010 -0.5350589016 -0.2988575907
-0.1088901111 -0.6026341521 -0.3497134726
-0.0979611090 -0.6093119789 -0.3547638269
0.0725632533 -0.6962910419 -0.4038832851
0.0825835867 -0.7012778359 -0.4065553917
0.1409494631 -0.7237813257 -0.4108379450
0.2585509532 -0.7662435589 -0.4145011143
0.3063851005 -0.7727233364 -0.3973844609
0.4161669964 -0.7838631522 -0.3516668918
0.3991426173 -0.7612137818 -0.3226836399
0.3759457827 -0.7114006738 -0.2505158156
0.3659952261 -0.6902294642 -0.2198977393
0.3349234912 -0.6173804109 -0.1126691812
0.3203093930 -0.5861502847 -0.0861414107
0.2840214459 -0.4988145169 0.0532114228
0.2715823564 -0.4584463635 0.1203703460
0.2307152621 -0.3667930216 0.2648465485
0.2302343870 -0.3582222651 0.2804748491
0.2280697238 -0.3530694085 0.2886817434
0.1965892378 -0.3033053928 0.3612359431
0.1945486902 -0.3014145881 0.3634573206
0.1570936953 -0.2669320617 0.4038153150
0.1104599954 -0.2356573510 0.4323908621
0.1005321689 -0.2291532910 0.4381880116
0.0568926249 -0.2072507276 0.4512388180
0.0324371261 -0.1958992049 0.4568372902
-0.0126538434 -0.1725768257 0.4716073877
-0.1042822072 -0.1342897782 0.4846934770
-0.1288328312 -0.1224368794 0.4911637078
-0.1597563682 -0.1105661844 0.4936267537
-0.2567173106 -0.0717528844 0.5043104323
-0.2953552300 -0.0608632741 0.5000589010
-0.3811871026 -0.0266772670 0.5091959265
-0.3895834488 -0.0249183673 0.5071426728
-0.4058959098 -0.0212148167 0.5036859344
-0.4631010012 -0.0011561144 0.5047087565
-0.5220034352 0.0043416909 0.4775865825
-0.5416520992 0.0007528695 0.4584581468
-0.6041194700 -0.0464533286 0.3310983673
-0.6059802433 -0.0605275424 0.3037545113
-0.5966112626 -0.1125174725 0.2130441603
-0.5824992770 -0.1785372871 0.0992589929
-0.5555904979 -0.2230445305 0.0335788627
-0.5228545786 -0.2768013004 -0.0456020126
-0.4925935178 -0.3068280079 -0.0822373486
-0.4055161835 -0.3918671969 -0.1851216017
-0.3693286862 -0.4173828280 -0.2096135668
-0.2797502060 -0.4839515652 -0.2765753118
-0.2548307889 -0.5018445725 -0.2940403882
-0.2461097041 -0.5079057249 -0.2997792100
-0.1212203887 -0.5822869458 -0.3588782884
-0.0940462619 -0.5985324945 -0.3718512850
0.0552403355 -0.6734204648 -0.4164251489
0.0860914977 -0.6885270657 -0.4249496759
0.2642721541 -0.7566930693 -0.4387091905
0.2651589904 -0.7570046110 -0.4387261190
0.2668511933 -0.7574118668 -0.4384103991
0.4103786275 -0.7730043765 -0.3764042884
0.3889219725 -0.7446873828 -0.3373655617
0.3698165425 -0.7029573881 -0.2719012492
0.3567999928 -0.6748015910 -0.2278113730
0.3305544288 -0.6117094926 -0.1271612598
0.3442082495 0.0620992541 -0.7150893720
0.3722712386 0.1409777184 -0.6830356916
0.4229290692 0.2456974223 -0.6299792296
0.4389327483 0.2708814966 -0.6142253963
0.4126307577 0.2811483608 -0.6335270374
0.3103699719 0.2779718612 -0.7140681594
0.2759818139 0.2748925316 -0.7414090059
0.2100205825 0.2295921476 -0.7988778904
0.1792136122 0.2047632574 -0.8261869027
0.1677282180 0.1776059700 -0.8386517334
0.1367688434 0.0825474071 -0.8750391995
0.1360336299 -0.0312721651 -0.8901350214
0.1372014179 -0.0434858847 -0.8907779666
0.1884189332 -0.1831769214 -0.8684617770
0.1941007117 -0.1928440456 -0.8652425043
0.2646023251 -0.3011724478 -0.8238136222
0.2882754257 -0.3261218754 -0.8084451089
0.3338130274 -0.3752314659 -0.7790246934
0.3274720424 -0.3579668627 -0.7817913571
0.3204259487 -0.3212053794 -0.7826234058
0.3095760500 -0.1971190547 -0.7752964669
0.3231638880 -0.0533483524 -0.7463079908
0.2953324254 0.2352708895 -0.4433172040
0.3439728089 0.3298817296 -0.4003165324
0.3927632038 0.4132896300 -0.3586263962
0.4061837061 0.4356801864 -0.3472282246
0.3733046921 0.4645116863 -0.3646459627
0.3359845699 0.4890454762 -0.3854449006
0.3020694329 0.4989583465 -0.4059008161
0.2468628954 0.5127368461 -0.4394946248
0.2015338603 0.5065935912 -0.4692695116
0.1255258118 0.4939247238 -0.5194935308
0.0482939814 0.4641130273 -0.5726528499
0.0150557339 0.4516568272 -0.5954840785
-0.0324533869 0.4221106217 -0.6295921055
-0.0756136273 0.3959069552 -0.6604978655
-0.0886808170 0.3819977250 -0.6706051481
-0.1382698910 0.3055126629 -0.7119371594
-0.1593751355 0.2195283359 -0.7362365281
-0.1687375823 0.1557483876 -0.7502345724
-0.1367005520 -0.0444042970 -0.7548648058
-0.1319316774 -0.0697586465 -0.7549966774
-0.1137177691 -0.1081282294 -0.7481598483
-0.0137731067 -0.3085781745 -0.7093769688
0.0723751899 -0.4266267201 -0.6690762134
0.1284427110 -0.5066888154 -0.6432533578
0.2024782270 -0.5907200977 -0.6064320789
0.2538960601 -0.6331696986 -0.5788620908
0.3405811306 -0.6830185031 -0.5296554622
0.3792540855 -0.7032076117 -0.5074454485
0.3667054263 -0.6803998627 -0.5126111654
0.3039456376 -0.5560541620 -0.5371562726
0.2466761476 -0.4132153994 -0.5558666452
0.2335085012 -0.3403309663 -0.5551413328
0.2196394456 -0.1138559467 -0.5355816445
0.2273023469 -0.0381960588 -0.5211795312
0.2655883350 0.1521334563 -0.4727866795
0 1 0 255 0
1 2 0 255 0
2 3 0 255 0
3 4 0 255 0
4 5 0 255 0
5 6 0 255 0
6 7 0 255 0
7 8 0 255 0
8 9 0 255 0
9 10 0 255 0
10 11 0 255 0
11 12 0 255 0
12 13 0 255 0
13 14 0 255 0
14 15 0 255 0
15 16 0 255 0
16 17 0 255 0
17 18 0 255 0
18 19 0 255 0
19 20 0 255 0
20 21 0 255 0
21 22 0 255 0
22 23 0 255 0
23 24 0 255 0
24 25 0 255 0
25 26 0 255 0
26 27 0 255 0
27 28 0 255 0
28 29 0 255 0
29 30 0 255 0
30 31 0 255 0
31 32 0 255 0
32 0 0 255 0
33 34 0 255 0
34 35 0 255 0
35 36 0 255 0
36 37 0 255 0
37 38 0 255 0
38 39 0 255 0
39 40 0 255 0
40 41 0 255 0
41 42 0 255 0
42 43 0 255 0
43 44 0 255 0
44 45 0 255 0
45 46 0 255 0
46 47 0 255 0
47 48 0 255 0
48 49 0 255 0
49 50 0 255 0
50 51 0 255 0
51 52 0 255 0
52 53 0 255 0
53 54 0 255 0
54 55 0 255 0
55 56 0 255 0
56 57 0 255 0
57 58 0 255 0
58 59 0 255 0
59 60 0 255 0
60 61 0 255 0
61 62 0 255 0
62 63 0 255 0
63 64 0 255 0
64 65 0 255 0
65 66 0 255 0
66 67 0 255 0
67 68 0 255 0
68 69 0 255 0
69 70 0 255 0
70 71 0 255 0
71 72 0 255 0
72 73 0 255 0
73 74 0 255 0
74 75 0 255 0
75 76 0 255 0
76 77 0 255 0
77 78 0 255 0
78 79 0 255 0
79 80 0 255 0
80 81 0 255 0
81 82 0 255 0
82 83 0 255 0
83 84 0 255 0
84 85 0 255 0
85 33 0 255 0
86 87 0 255 0
87 88 0 255 0
88 89 0 255 0
89 90 0 255 0
90 91 0 255 0
91 92 0 255 0
92 93 0 255 0
93 94 0 255 0
94 95 0 255 0
95 96 0 255 0
96 97 0 255 0
97 98 0 255 0
98 99 0 255 0
99 100 0 255 0
100 101 0 255 0
101 102 0 255 0
102 103 0 255 0
103 104 0 255 0
104 105 0 255 0
105 106 0 255 0
106 107 0 255 0
107 108 0 255 0
108 109 0 255 0
109 110 0 255 0
110 111 0 255 0
111 112 0 255 0
112 113 0 255 0
113 114 0 255 0
114 115 0 255 0
115 116 0 255 0
116 117 0 255 0
117 118 0 255 0
118 119 0 255 0
119 120 0 255 0
120 121 0 255 0
121 122 0 255 0
122 123 0 255 0
123 124 0 255 0
124 125 0 255 0
125 126 0 255 0
126 127 0 255 0
127 128 0 255 0
128 129 0 255 0
129 130 0 255 0
130 131 0 255 0
131 86 0 255 0
132 133 0 255 0
133 134 0 255 0
134 135 0 255 0
135 136 0 255 0
136 137 0 255 0
137 138 0 255 0
138 139 0 255 0
139 140 0 255 0
140 141 0 255 0
141 142 0 255 0
142 143 0 255 0
143 144 0 255 0
144 145 0 255 0
145 146 0 255 0
146 147 0 255 0
147 148 0 255 0
148 149 0 255 0
149 150 0 255 0
150 151 0 255 0
151 152 0 255 0
152 153 0 255 0
153 154 0 255 0
154 155 0 255 0
155 156 0 255 0
156 157 0 255 0
157 158 0 255 0
158 159 0 255 0
159 160 0 255 0
160 161 0 255 0
161 162 0 255 0
162 163 0 255 0
163 164 0 255 0
164 165 0 255 0
165 166 0 255 0
166 167 0 255 0
167 168 0 255 0
168 169 0 255 0
169 170 0 255 0
170 171 0 255 0
171 172 0 255 0
172 173 0 255 0
173 174 0 255 0
174 175 0 255 0
175 176 0 255 0
176 177 0 255 0
177 178 0 255 0
178 179 0 255 0
179 180 0 255 0
180 181 0 255 0
181 182 0 255 0
182 183 0 255 0
183 184 0 255 0
184 185 0 255 0
185 186 0 255 0
186 187 0 255 0
187 132 0 255 0
188 189 0 255 0
189 190 0 255 0
190 191 0 255 0
191 192 0 255 0
192 193 0 255 0
193 194 0 255 0
194 195 0 255 0
195 196 0 255 0
196 197 0 255 0
197 198 0 255 0
198 199 0 255 0
199 200 0 255 0
200 201 0 255 0
201 202 0 255 0
202 203 0 255 0
203 204 0 255 0
204 205 0 255 0
205 206 0 255 0
206 207 0 255 0
207 208 0 255 0
208 209 0 255 0
209 210 0 255 0
210 211 0 255 0
211 212 0 255 0
212 213 0 255 0
213 214 0 255 0
214 215 0 255 0
215 216 0 255 0
216 217 0 255 0
217 218 0 255 0
218 219 0 255 0
219 220 0 255 0
220 221 0 255 0
221 222 0 255 0
222 223 0 255 0
223 224 0 255 0
224 225 0 255 0
225 226 0 255 0
226 227 0 255 0
227 228 0 255 0
228 229 0 255 0
229 230 0 255 0
230 231 0 255 0
231 232 0 255 0
232 233 0 255 0
233 234 0 255 0
234 235 0 255 0
235 236 0 255 0
236 188 0 255 0
237 238 0 255 0
238 239 0 255 0
239 240 0 255 0
240 241 0 255 0
241 242 0 255 0
242 243 0 255 0
243 244 0 255 0
244 245 0 255 0
245 246 0 255 0
246 247 0 255 0
247 248 0 255 0
248 249 0 255 0
249 250 0 255 0
250 251 0 255 0
251 252 0 255 0
252 253 0 255 0
253 254 0 255 0
254 255 0 255 0
255 256 0 255 0
256 257 0 255 0
257 258 0 255 0
258 259 0 255 0
259 260 0 255 0
260 261 0 255 0
261 262 0 255 0
262 263 0 255 0
263 264 0 255 0
264 265 0 255 0
265 266 0 255 0
266 267 0 255 0
267 268 0 255 0
268 269 0 255 0
269 270 0 255 0
270 271 0 255 0
271 272 0 255 0
272 273 0 255 0
273 274 0 255 0
274 275 0 255 0
275 276 0 255 0
276 277 0 255 0
277 278 0 255 0
278 279 0 255 0
279 280 0 255 0
280 281 0 255 0
281 282 0 255 0
282 283 0 255 0
283 284 0 255 0
284 285 0 255 0
285 237 0 255 0
286 287 0 255 0
287 288 0 255 0
288 289 0 255 0
289 290 0 255 0
290 291 0 255 0
291 292 0 255 0
292 293 0 255 0
293 294 0 255 0
294 295 0 255 0
295 296 0 255 0
296 297 0 255 0
297 298 0 255 0
298 299 0 255 0
299 300 0 255 0
300 301 0 255 0
301 302 0 255 0
302 303 0 255 0
303 304 0 255 0
304 305 0 255 0
305 306 0 255 0
306 307 0 255 0
307 286 0 255 0
308 309 0 255 0
309 310 0 255 0
310 311 0 255 0
311 312 0 255 0
312 313 0 255 0
313 314 0 255 0
314 315 0 255 0
315 316 0 255 0
316 317 0 255 0
317 318 0 255 0
318 319 0 255 0
319 320 0 255 0
320 321 0 255 0
321 322 0 255 0
322 323 0 255 0
323 324 0 255 0
324 325 0 255 0
325 326 0 255 0
326 327 0 255 0
327 328 0 255 0
328 329 0 255 0
329 330 0 255 0
330 331 0 255 0
331 332 0 255 0
332 333 0 255 0
333 334 0 255 0
334 335 0 255 0
335 336 0 255 0
336 337 0 255 0
337 338 0 255 0
338 339 0 255 0
339 340 0 255 0
340 341 0 255 0
341 342 0 255 0
342 308 0 255 0
