ply
format ascii 1.0
element vertex 107
property float x
property float y
property float z
element edge 107
property int vertex1
property int vertex2
property uchar red
property uchar green
property uchar blue
end_header
281.6976564187 70.4093136421 -248.1636206583
282.6727518284 71.4297459125 -248.8812220014
282.8874395122 71.5855520622 -249.0707455982
290.3639733652 75.8288317764 -256.2124246966
296.4388237911 78.3158077901 -262.4550861516
297.4345361038 78.8406501612 -263.4246406563
298.1085791757 78.8411616908 -264.2434090522
298.8387715594 78.4171967758 -265.3247458079
299.0887198919 78.3252440247 -265.6705478909
299.4527411395 78.1011453789 -266.2154574599
299.4976463413 78.0541438533 -266.2915392844
299.5607186238 77.9566695260 -266.4128038190
300.0751507124 77.1191701443 -267.4213128108
300.5671356393 76.4047626704 -268.3461903853
301.6722747711 75.9707281999 -269.8877201133
301.9945905328 75.4815928726 -270.5033002293
303.0735125655 73.6642798189 -272.6462991067
303.6228937147 71.7038891817 -274.2113812565
303.7600110159 69.7688970152 -275.2639096910
304.8474636778 62.4020820862 -279.9580746789
304.6019722664 60.5427767899 -280.5110579647
303.5778814284 52.7893372623 -282.8165848543
302.2962984815 48.9242285661 -283.0289981879
300.4786973134 43.8790492853 -283.1304044839
298.5653833018 40.8142207053 -282.2088241450
294.8418349214 35.5078260825 -280.1139863565
293.2072744373 33.8434508236 -278.8899203793
290.9556051018 32.4159370892 -276.8075848812
286.1348033324 29.1008685455 -272.4678038673
280.0797657519 27.7275132818 -265.7393526778
278.5717906261 27.4530524710 -264.0327327970
273.5233558175 28.5122380489 -257.4136421771
272.8370990072 28.7417191621 -256.4747328254
271.3660493156 29.7458031004 -254.2276067203
269.2232040897 31.4316703112 -250.8520591759
268.1743227751 33.0669371967 -248.8289101390
266.7367388748 36.2487882732 -245.6253714121
266.1398727374 38.2227211256 -243.9963919561
265.6641690664 41.0834324875 -242.1086267534
265.6293902083 42.4808317178 -241.4265788321
265.7094152772 43.8590775434 -240.8927937932
265.9847970393 45.7565313835 -240.3586630232
266.1617321578 46.6304283179 -240.1735421202
267.1071469724 50.4098383599 -239.5919009585
268.0298991296 53.7602839978 -239.1791216872
268.1992433037 54.3009476369 -239.1373458827
268.4015545636 55.0507061802 -239.0398944074
273.5540221128 62.0704636495 -242.0865030643
274.5396511987 63.3106570916 -242.7162873271
322.8892382336 53.0109797912 -281.3986307047
323.1514704788 52.8773284855 -281.6763213784
325.8663193921 40.9239655420 -283.2595724042
325.6685296248 38.1595288418 -282.6999847975
325.3634965792 34.7530000380 -281.9416877421
325.0353490501 31.5821068745 -281.1862691189
324.0391819905 28.8277840796 -279.7327514846
322.8123074062 26.1108246612 -278.0251231254
321.3725422019 23.1986921648 -276.0549445218
319.2682667473 20.1323890305 -273.3208559833
317.4545646032 18.6939382302 -271.1114941272
316.4855593709 18.2375912882 -269.9692482308
311.3253067242 16.0147204971 -263.9117700891
308.9352142621 15.6188891123 -261.1835511922
303.1205638450 14.6081495064 -254.5404662394
300.6313453876 14.5467068039 -251.7419670648
294.7149815170 14.6595780623 -245.1221451508
292.5351737061 15.0295143861 -242.7232823561
287.2520204780 16.6332224204 -236.9956194159
285.7788644375 17.3970379283 -235.4372098081
280.7131145903 21.2790483333 -230.2317193381
280.5868338726 21.3854892544 -230.1031366721
280.5531967413 21.4212648576 -230.0697934997
276.7523118183 26.5555406107 -226.4355389534
276.6641904781 26.7092778720 -226.3555214959
276.4922537684 27.0386711656 -226.2029930877
274.2332289821 31.8905281017 -224.2630089574
273.3679293653 34.4168284124 -223.6015262758
272.8063690741 36.8008497282 -223.2632190040
272.4910614721 38.8795964197 -223.1637129235
272.2804016473 40.8821357815 -223.1722285719
272.3387181636 43.3980798052 -223.5450680624
272.6913145993 48.1219102217 -224.5176714718
272.9508831758 49.8016546940 -225.0139759804
273.3777258370 53.5077740960 -225.9454603867
274.2579516043 58.4272593979 -227.5335679537
274.7792477176 60.9243273705 -228.4232081770
278.8654492089 66.2869109634 -233.6601049619
280.3690603918 68.3836730154 -235.6022298792
281.0010561527 69.0292205963 -236.3897307365
286.9774667575 73.6542876347 -243.6558640570
293.4530044281 75.9919089187 -251.2021042528
294.0745780729 76.1594289858 -251.9195036282
294.4439831532 76.2127526277 -252.3402085825
300.1034960065 78.4056127626 -258.9538057582
301.5844331156 77.7047695630 -260.5286350834
302.9511906307 76.3484777256 -261.8953455487
303.1796614872 75.9902858249 -262.1077425923
304.5989481976 74.0935985913 -263.4673131101
304.9507430496 73.5324235449 -263.7931800050
306.4777769334 72.0356463947 -265.3224298497
307.0915281913 71.2460636544 -265.9140987270
307.3135745906 70.9398973435 -266.1256500916
309.8793198078 65.4169360775 -268.3275286765
313.1629906422 59.7627377694 -271.3183308382
315.2621628778 57.7964201241 -273.4317016220
317.9110797268 54.7949000584 -276.0349598075
322.7645494340 53.0265431041 -281.2607275307
0 1 0 255 0
1 2 0 255 0
2 3 0 255 0
3 4 0 255 0
4 5 0 255 0
5 6 0 255 0
6 7 0 255 0
7 8 0 255 0
8 9 0 255 0
9 10 0 255 0
10 11 0 255 0
11 12 0 255 0
12 13 0 255 0
13 14 0 255 0
14 15 0 255 0
15 16 0 255 0
16 17 0 255 0
17 18 0 255 0
18 19 0 255 0
19 20 0 255 0
20 21 0 255 0
21 22 0 255 0
22 23 0 255 0
23 24 0 255 0
24 25 0 255 0
25 26 0 255 0
26 27 0 255 0
27 28 0 255 0
28 29 0 255 0
29 30 0 255 0
30 31 0 255 0
31 32 0 255 0
32 33 0 255 0
33 34 0 255 0
34 35 0 255 0
35 36 0 255 0
36 37 0 255 0
37 38 0 255 0
38 39 0 255 0
39 40 0 255 0
40 41 0 255 0
41 42 0 255 0
42 43 0 255 0
43 44 0 255 0
44 45 0 255 0
45 46 0 255 0
46 47 0 255 0
47 48 0 255 0
48 0 0 255 0
49 50 0 255 0
50 51 0 255 0
51 52 0 255 0
52 53 0 255 0
53 54 0 255 0
54 55 0 255 0
55 56 0 255 0
56 57 0 255 0
57 58 0 255 0
58 59 0 255 0
59 60 0 255 0
60 61 0 255 0
61 62 0 255 0
62 63 0 255 0
63 64 0 255 0
64 65 0 255 0
65 66 0 255 0
66 67 0 255 0
67 68 0 255 0
68 69 0 255 0
69 70 0 255 0
70 71 0 255 0
71 72 0 255 0
72 73 0 255 0
73 74 0 255 0
74 75 0 255 0
75 76 0 255 0
76 77 0 255 0
77 78 0 255 0
78 79 0 255 0
79 80 0 255 0
80 81 0 255 0
81 82 0 255 0
82 83 0 255 0
83 84 0 255 0
84 85 0 255 0
85 86 0 255 0
86 87 0 255 0
87 88 0 255 0
88 89 0 255 0
89 90 0 255 0
90 91 0 255 0
91 92 0 255 0
92 93 0 255 0
93 94 0 255 0
94 95 0 255 0
95 96 0 255 0
96 97 0 255 0
97 98 0 255 0
98 99 0 255 0
99 100 0 255 0
100 101 0 255 0
101 102 0 255 0
102 103 0 255 0
103 104 0 255 0
104 105 0 255 0
105 106 0 255 0
106 49 0 255 0
