ply
format ascii 1.0
element vertex 354
property float x
property float y
property float z
element edge 354
property int vertex1
property int vertex2
property uchar red
property uchar green
property uchar blue
end_header
0.8992174848 0.2623629466 -0.2781366569
0.9052743861 0.2713670888 -0.2832390544
0.9051157216 0.2713227174 -0.2833365880
0.8971280250 0.2682111737 -0.2871870612
0.8870141964 0.2620425341 -0.2893715284
0.8828002183 0.2579200848 -0.2884076721
0.8741329477 0.2486686133 -0.2854926397
0.8709385992 0.2436274408 -0.2824485789
0.8667846348 0.2368935086 -0.2782747437
0.8610162558 0.2250913073 -0.2695194970
0.8603903910 0.2236268522 -0.2683475076
0.8600866045 0.2229937042 -0.2678724212
0.8529324398 0.1996839195 -0.2465438902
0.8522839315 0.1976991000 -0.2447652330
0.8520398981 0.1959955172 -0.2429409126
0.8525557940 0.1879357700 -0.2327191262
0.8543962637 0.1755075250 -0.2159618354
0.8576400996 0.1714666006 -0.2079940143
0.8626522114 0.1656530313 -0.1962020881
0.8654171814 0.1638394401 -0.1913793551
0.8827202701 0.1622807594 -0.1730191136
0.8831586009 0.1621942429 -0.1724972220
0.8835355132 0.1622721589 -0.1722323401
0.8849467624 0.1627471967 -0.1714618582
0.9009170173 0.1681984212 -0.1628339402
0.8963861127 0.1781708585 -0.1791885653
0.8934208990 0.1833291698 -0.1882400563
0.8863644213 0.1952504539 -0.2093527198
0.8850820566 0.1999259423 -0.2162186543
0.8817618654 0.2181533935 -0.2413864875
0.8832895985 0.2252599563 -0.2485112673
0.8875902732 0.2409294095 -0.2633331770
0.8934439636 0.2533958240 -0.2728090782
0.8970639851 0.2592653611 -0.2764478314
0.8941857036 0.2060090870 -0.2567642956
0.8880032363 0.2092483312 -0.2491184526
0.8854592761 0.2111391598 -0.2451020227
0.8848157855 0.2117928087 -0.2438125243
0.8764612822 0.2232175089 -0.2224874626
0.8746610165 0.2265875158 -0.2164756318
0.8672370524 0.2440091045 -0.1861865087
0.8659919398 0.2467628945 -0.1813687370
0.8629698935 0.2568145576 -0.1644219715
0.8611328536 0.2671373186 -0.1475493454
0.8613013666 0.2695372930 -0.1438763823
0.8607063782 0.2809753491 -0.1257849856
0.8612612561 0.2827173925 -0.1233003568
0.8609952810 0.2878200217 -0.1152293785
0.8610670736 0.2880748827 -0.1148619404
0.8605070472 0.2895526861 -0.1123218772
0.8591536860 0.2934471462 -0.1056794102
0.8538674366 0.2958768570 -0.0996722238
0.8512497206 0.2986062195 -0.0943168577
0.8416224242 0.3005080460 -0.0873123770
0.8321461161 0.2988591244 -0.0859099187
0.8300938829 0.2988931922 -0.0849960291
0.8292523876 0.2986495754 -0.0850230986
0.8215588709 0.2960150550 -0.0859057824
0.8104922119 0.2931372135 -0.0857532500
0.8102490601 0.2931068855 -0.0856985748
0.8101338829 0.2930998317 -0.0856612702
0.7846713299 0.2897292298 -0.0802394472
0.7832337908 0.2895708050 -0.0798836356
0.7808144832 0.2890361265 -0.0797029561
0.7645058501 0.2863913254 -0.0769883209
0.7611549798 0.2850888876 -0.0776145273
0.7488940660 0.2804402249 -0.0797233458
0.7484501088 0.2800931562 -0.0800785221
0.7475249737 0.2790999322 -0.0812397990
0.7408825409 0.2724703109 -0.0887951549
0.7384282317 0.2679327778 -0.0948437156
0.7388690568 0.2587478133 -0.1093559297
0.7422698214 0.2479216741 -0.1276696170
0.7459999546 0.2428375483 -0.1371646709
0.7523746133 0.2342342824 -0.1532582832
0.7536004582 0.2333625051 -0.1551322843
0.7617948178 0.2282578987 -0.1665316727
0.7703649917 0.2231452859 -0.1781011744
0.7784740249 0.2202692015 -0.1859885773
0.7871731979 0.2167555260 -0.1951180542
0.7945709378 0.2140776421 -0.2023979598
0.8011660028 0.2116939578 -0.2088822950
0.8100098888 0.2092404238 -0.2164187876
0.8268404212 0.2041896131 -0.2313564489
0.8274195503 0.2040787510 -0.2317722776
0.8295664992 0.2037295271 -0.2332174946
0.8496023338 0.2009948991 -0.2458865880
0.8525568369 0.2009073669 -0.2472623053
0.8555903768 0.2007570398 -0.2487691241
0.8724403831 0.2018432668 -0.2541419904
0.8765495660 0.2022349675 -0.2552544644
0.8911362172 0.2052633748 -0.2566484907
0.8930859119 0.2057188611 -0.2567557343
0.8736309735 0.2258316463 -0.1887481691
0.8685194112 0.2374272916 -0.1705661064
0.8640980358 0.2521992014 -0.1475446976
0.8618626185 0.2573444555 -0.1394791055
0.8608672833 0.2681523970 -0.1227865101
0.8600122544 0.2701728647 -0.1196208053
0.8603086738 0.2748616043 -0.1124283065
0.8575664588 0.2786619924 -0.1063972683
0.8570025555 0.2804972499 -0.1035361108
0.8524201609 0.2836967956 -0.0983051444
0.8474013001 0.2866537162 -0.0934179448
0.8387185286 0.2888668277 -0.0894276668
0.8302827990 0.2889336806 -0.0887555642
0.8298225980 0.2890221083 -0.0885884837
0.8296205642 0.2890500906 -0.0885318060
0.8117514610 0.2903401517 -0.0853415018
0.8085183773 0.2907604384 -0.0844768142
0.7917103766 0.2915697601 -0.0820976183
0.7840222619 0.2922099859 -0.0805939701
0.7746233574 0.2923276401 -0.0797787243
0.7644596478 0.2926513984 -0.0785948256
0.7639247933 0.2925459988 -0.0787208643
0.7622009298 0.2922243224 -0.0790993554
0.7522259175 0.2912742858 -0.0798876187
0.7460150535 0.2890455516 -0.0828968666
0.7412926748 0.2853499957 -0.0882629149
0.7359598653 0.2765452255 -0.1014470713
0.7362746397 0.2704780938 -0.1108011410
0.7413170340 0.2540711444 -0.1363795744
0.7422129319 0.2527609224 -0.1384554945
0.7444471303 0.2495211714 -0.1435898444
0.7516282227 0.2400397092 -0.1586594006
0.7590296316 0.2344233722 -0.1677982556
0.7709842898 0.2256430199 -0.1821114552
0.7769674675 0.2227504148 -0.1869647955
0.7856457963 0.2181672813 -0.1946004846
0.7947857057 0.2136344409 -0.2021899584
0.8006223375 0.2107428189 -0.2070318972
0.8121253825 0.2060795244 -0.2149815140
0.8256189802 0.2003334531 -0.2247310512
0.8321424763 0.1982955855 -0.2283060449
0.8535679116 0.1921508315 -0.2392041214
0.8577256413 0.1915572306 -0.2403978086
0.8775236173 0.1898623859 -0.2443409409
0.8811918501 0.1900654392 -0.2442761341
0.8959933017 0.1917093781 -0.2427461694
0.8913687219 0.1956826549 -0.2363221565
0.8865721757 0.2010370584 -0.2277620064
0.8824254781 0.2071034734 -0.2181504508
0.8774006387 0.2168159427 -0.2028710552
0.8740249132 0.3261586789 -0.2021692196
0.8744961170 0.3347566262 -0.1930984502
0.8778083582 0.3523881702 -0.1739614015
0.8802817980 0.3634581072 -0.1618562649
0.8817685913 0.3715449985 -0.1530862597
0.8832483148 0.3780893834 -0.1459258909
0.8823701704 0.3833803255 -0.1406108263
0.8816402366 0.3853498089 -0.1387244365
0.8780561924 0.3897496661 -0.1349564310
0.8762271892 0.3915084078 -0.1335408016
0.8743253412 0.3929714698 -0.1324500507
0.8683793221 0.3973028385 -0.1292930046
0.8675220624 0.3975789513 -0.1292009940
0.8523321298 0.4011507469 -0.1289474320
0.8247174936 0.4055691477 -0.1306495659
0.8220481484 0.4059089781 -0.1309050785
0.8073948832 0.4060621484 -0.1340927470
0.7920021809 0.4059758291 -0.1376989915
0.7816160527 0.4043949456 -0.1417195937
0.7709446765 0.4028143384 -0.1458050688
0.7609546325 0.3993081824 -0.1517422356
0.7595733205 0.3985064833 -0.1528935279
0.7501549746 0.3913658484 -0.1624889444
0.7495879129 0.3906490142 -0.1633657626
0.7461180274 0.3848206738 -0.1702343003
0.7448005919 0.3822590629 -0.1732056616
0.7446111242 0.3815837906 -0.1739528962
0.7439065349 0.3705856810 -0.1855790841
0.7463983748 0.3556480521 -0.2005819332
0.7479300697 0.3500580946 -0.2060594184
0.7499675397 0.3458594753 -0.2099709332
0.7672253244 0.3156300716 -0.2375419622
0.7683433144 0.3142351266 -0.2387407650
0.7706431522 0.3118242560 -0.2407286653
0.7921198888 0.2902185622 -0.2583459446
0.8150757798 0.2728066099 -0.2712534678
0.8152396930 0.2726885471 -0.2713391014
0.8153938367 0.2725842859 -0.2714125787
0.8374856718 0.2622633339 -0.2771253068
0.8527747255 0.2537575147 -0.2824998129
0.8533609563 0.2535346977 -0.2825981770
0.8540507786 0.2532318633 -0.2827562930
0.8667513953 0.2485907327 -0.2846932592
0.8701374263 0.2478606281 -0.2846808797
0.8763449193 0.2466037738 -0.2845730970
0.8840213620 0.2457184408 -0.2837424511
0.8883628667 0.2454229187 -0.2830587656
0.8943379854 0.2459360270 -0.2811589273
0.8980594939 0.2468843758 -0.2793201697
0.8938819084 0.2534169594 -0.2734644409
0.8817076660 0.2824269760 -0.2460033223
0.8792492422 0.2911316387 -0.2374905395
0.8753015256 0.3151767821 -0.2133259269
0.8831894760 0.2043539097 -0.1591785686
0.8759107318 0.2172693188 -0.1422444447
0.8698161894 0.2294255321 -0.1258675784
0.8653832601 0.2367372127 -0.1164617324
0.8634810235 0.2433964744 -0.1066582259
0.8607451633 0.2480565184 -0.1006116705
0.8577815123 0.2520147255 -0.0958464410
0.8514933356 0.2570884664 -0.0911803400
0.8492627644 0.2589278997 -0.0894602223
0.8466902207 0.2603927477 -0.0885516562
0.8368360488 0.2659668836 -0.0851319532
0.8331737693 0.2675567984 -0.0846498824
0.8207366815 0.2731163400 -0.0827504260
0.8197212026 0.2735919842 -0.0825597806
0.8175773337 0.2744308946 -0.0824279374
0.8021277466 0.2815062468 -0.0797913332
0.7869013822 0.2870477627 -0.0795372928
0.7828562895 0.2885741541 -0.0793810239
0.7808695278 0.2890707596 -0.0797187392
0.7701849019 0.2930397980 -0.0794087213
0.7658942311 0.2947616557 -0.0790746171
0.7641269740 0.2954536433 -0.0789652010
0.7549291121 0.2982502984 -0.0797138142
0.7428690697 0.2984281614 -0.0864092151
0.7416964829 0.2980310301 -0.0877388840
0.7327842085 0.2876255004 -0.1099425651
0.7328608804 0.2859129108 -0.1127027641
0.7349092489 0.2791389477 -0.1226094531
0.7395213672 0.2644058413 -0.1440651647
0.7457843440 0.2549394884 -0.1559394117
0.7508877903 0.2473141089 -0.1654705387
0.7550450968 0.2433075997 -0.1696233563
0.7715118453 0.2277707404 -0.1855276541
0.7756572320 0.2249082972 -0.1878138011
0.7882217332 0.2157863798 -0.1954733571
0.7966418422 0.2098040643 -0.2003923018
0.7990915201 0.2080646638 -0.2018216671
0.8189804102 0.1958369731 -0.2103241851
0.8233264219 0.1930957137 -0.2122956489
0.8458624213 0.1814956792 -0.2182367525
0.8504621469 0.1792165740 -0.2193043885
0.8767727151 0.1700181945 -0.2191257293
0.8781029464 0.1695916573 -0.2190536111
0.8786549350 0.1695524425 -0.2187980506
0.9013605608 0.1690262607 -0.2065058261
0.8973497308 0.1745368948 -0.1998049257
0.8935022728 0.1831995987 -0.1878474029
0.8911635789 0.1878531924 -0.1815813225
0.8858908090 0.1991920927 -0.1660668534
0.8984297218 0.1725219306 -0.1981472187
0.8943975767 0.1817740111 -0.1835272908
0.8932133172 0.1841569943 -0.1798537829
0.8883198281 0.1949053358 -0.1630016416
0.8874610401 0.1968359955 -0.1599618372
0.8861048735 0.1991615667 -0.1565034080
0.8780313623 0.2134817373 -0.1350322896
0.8760660275 0.2174292786 -0.1289491622
0.8665428378 0.2327661691 -0.1065070896
0.8662842429 0.2336724753 -0.1049888418
0.8659272566 0.2342475052 -0.1041473717
0.8614687077 0.2397853021 -0.0966881397
0.8593913053 0.2425428091 -0.0928837541
0.8589939027 0.2429306117 -0.0924151853
0.8557089376 0.2454190590 -0.0898725691
0.8497945751 0.2499839123 -0.0851378496
0.8377125617 0.2564985965 -0.0806802332
0.8367425909 0.2570184009 -0.0803283196
0.8260058319 0.2614891314 -0.0788135144
0.8234821556 0.2625690842 -0.0784034544
0.8141154759 0.2667603237 -0.0765420257
0.7982549157 0.2727557007 -0.0754340271
0.7967722560 0.2732814120 -0.0753949103
0.7949790943 0.2738374933 -0.0754955234
0.7794207743 0.2795039603 -0.0748069190
0.7695649524 0.2819581035 -0.0764773602
0.7645252579 0.2837617033 -0.0763134885
0.7608836297 0.2843583374 -0.0775061429
0.7536411720 0.2856185572 -0.0797414670
0.7504060395 0.2865778087 -0.0800046295
0.7467956487 0.2867174976 -0.0820253674
0.7412887642 0.2852271890 -0.0882679898
0.7352208548 0.2791237283 -0.1034240669
0.7353126408 0.2748276321 -0.1113370193
0.7399505054 0.2599821320 -0.1359523922
0.7407340730 0.2575766508 -0.1399206743
0.7421081464 0.2556207637 -0.1426818890
0.7513699889 0.2425767342 -0.1610348582
0.7581396874 0.2364076607 -0.1682058911
0.7708441807 0.2250779361 -0.1812041750
0.7786955248 0.2199044039 -0.1858450499
0.7982029659 0.2063833424 -0.1986131358
0.7985122162 0.2062198545 -0.1987211813
0.8007908122 0.2048523074 -0.1998196048
0.8208470185 0.1930479499 -0.2090560051
0.8229156224 0.1917987959 -0.2100673708
0.8473549429 0.1796681047 -0.2171413666
0.8502395092 0.1782893779 -0.2178778702
0.8684100807 0.1720696934 -0.2179433038
0.8776060836 0.1691574730 -0.2175394392
0.8813561701 0.1688663544 -0.2157114459
0.9016582073 0.1681814191 -0.2041617938
0.8928238789 0.2942309617 -0.2572722091
0.8953631295 0.3034285807 -0.2541039044
0.9015988183 0.3212934277 -0.2469293480
0.9025001972 0.3229957687 -0.2460051816
0.9007096320 0.3236830295 -0.2473188943
0.8828940916 0.3245785653 -0.2611524421
0.8793926492 0.3243079982 -0.2639285729
0.8697633629 0.3194654618 -0.2720890957
0.8631119247 0.3151436724 -0.2778513264
0.8612084868 0.3115449530 -0.2798033842
0.8552172389 0.2959383113 -0.2864967878
0.8545625435 0.2813138781 -0.2888859662
0.8549999162 0.2755750073 -0.2892799367
0.8569106760 0.2698284985 -0.2885213166
0.8630070871 0.2537212177 -0.2858150753
0.8662463941 0.2475601496 -0.2840694811
0.8715159792 0.2405767162 -0.2808398302
0.8786770751 0.2312599935 -0.2764286493
0.8886512539 0.2232386943 -0.2696487716
0.8943644432 0.2190012140 -0.2657194484
0.8921073398 0.2257215595 -0.2666242722
0.8900664625 0.2368622566 -0.2667925894
0.8887263742 0.2531681516 -0.2657494393
0.8904529913 0.2747024697 -0.2616343433
0.8833136580 0.3267244630 -0.2189888071
0.8861352645 0.3335979826 -0.2163368771
0.8922552106 0.3460835775 -0.2108864955
0.8936769377 0.3485390003 -0.2096757144
0.8921129378 0.3492645887 -0.2105811625
0.8821129528 0.3549848369 -0.2162359278
0.8722477645 0.3570749206 -0.2222566884
0.8682966180 0.3572065724 -0.2247558899
0.8547802123 0.3552386665 -0.2336063454
0.8458471182 0.3520546462 -0.2396900913
0.8358185330 0.3482698019 -0.2465460860
0.8297706314 0.3449134116 -0.2508143621
0.8190360848 0.3356683334 -0.2587994134
0.8146601151 0.3300069827 -0.2622900955
0.8093619907 0.3127984208 -0.2678050743
0.8082835842 0.3072669405 -0.2691801240
0.8128281871 0.2761172041 -0.2701636500
0.8134353394 0.2727758092 -0.2701929686
0.8166114040 0.2661826338 -0.2689914531
0.8321748203 0.2355984308 -0.2628892141
0.8484127867 0.2144057382 -0.2551886238
0.8563084041 0.2038497357 -0.2514755182
0.8664167862 0.1941141555 -0.2462514947
0.8776379262 0.1864115045 -0.2400659865
0.8938447597 0.1798522183 -0.2305639184
0.8985378700 0.1782194897 -0.2277791554
0.8966063375 0.1819833613 -0.2285404514
0.8860545226 0.2042070530 -0.2324925044
0.8783001274 0.2238763567 -0.2349814402
0.8755066615 0.2396606489 -0.2347954230
0.8734775183 0.2678626464 -0.2325772533
0.8749498131 0.2870895006 -0.2292468755
0.8779712453 0.3069770887 -0.2248479681
0 1 0 255 0
1 2 0 255 0
2 3 0 255 0
3 4 0 255 0
4 5 0 255 0
5 6 0 255 0
6 7 0 255 0
7 8 0 255 0
8 9 0 255 0
9 10 0 255 0
10 11 0 255 0
11 12 0 255 0
12 13 0 255 0
13 14 0 255 0
14 15 0 255 0
15 16 0 255 0
16 17 0 255 0
17 18 0 255 0
18 19 0 255 0
19 20 0 255 0
20 21 0 255 0
21 22 0 255 0
22 23 0 255 0
23 24 0 255 0
24 25 0 255 0
25 26 0 255 0
26 27 0 255 0
27 28 0 255 0
28 29 0 255 0
29 30 0 255 0
30 31 0 255 0
31 32 0 255 0
32 33 0 255 0
33 0 0 255 0
34 35 0 255 0
35 36 0 255 0
36 37 0 255 0
37 38 0 255 0
38 39 0 255 0
39 40 0 255 0
40 41 0 255 0
41 42 0 255 0
42 43 0 255 0
43 44 0 255 0
44 45 0 255 0
45 46 0 255 0
46 47 0 255 0
47 48 0 255 0
48 49 0 255 0
49 50 0 255 0
50 51 0 255 0
51 52 0 255 0
52 53 0 255 0
53 54 0 255 0
54 55 0 255 0
55 56 0 255 0
56 57 0 255 0
57 58 0 255 0
58 59 0 255 0
59 60 0 255 0
60 61 0 255 0
61 62 0 255 0
62 63 0 255 0
63 64 0 255 0
64 65 0 255 0
65 66 0 255 0
66 67 0 255 0
67 68 0 255 0
68 69 0 255 0
69 70 0 255 0
70 71 0 255 0
71 72 0 255 0
72 73 0 255 0
73 74 0 255 0
74 75 0 255 0
75 76 0 255 0
76 77 0 255 0
77 78 0 255 0
78 79 0 255 0
79 80 0 255 0
80 81 0 255 0
81 82 0 255 0
82 83 0 255 0
83 84 0 255 0
84 85 0 255 0
85 86 0 255 0
86 87 0 255 0
87 88 0 255 0
88 89 0 255 0
89 90 0 255 0
90 91 0 255 0
91 92 0 255 0
92 34 0 255 0
93 94 0 255 0
94 95 0 255 0
95 96 0 255 0
96 97 0 255 0
97 98 0 255 0
98 99 0 255 0
99 100 0 255 0
100 101 0 255 0
101 102 0 255 0
102 103 0 255 0
103 104 0 255 0
104 105 0 255 0
105 106 0 255 0
106 107 0 255 0
107 108 0 255 0
108 109 0 255 0
109 110 0 255 0
110 111 0 255 0
111 112 0 255 0
112 113 0 255 0
113 114 0 255 0
114 115 0 255 0
115 116 0 255 0
116 117 0 255 0
117 118 0 255 0
118 119 0 255 0
119 120 0 255 0
120 121 0 255 0
121 122 0 255 0
122 123 0 255 0
123 124 0 255 0
124 125 0 255 0
125 126 0 255 0
126 127 0 255 0
127 128 0 255 0
128 129 0 255 0
129 130 0 255 0
130 131 0 255 0
131 132 0 255 0
132 133 0 255 0
133 134 0 255 0
134 135 0 255 0
135 136 0 255 0
136 137 0 255 0
137 138 0 255 0
138 139 0 255 0
139 140 0 255 0
140 141 0 255 0
141 142 0 255 0
142 93 0 255 0
143 144 0 255 0
144 145 0 255 0
145 146 0 255 0
146 147 0 255 0
147 148 0 255 0
148 149 0 255 0
149 150 0 255 0
150 151 0 255 0
151 152 0 255 0
152 153 0 255 0
153 154 0 255 0
154 155 0 255 0
155 156 0 255 0
156 157 0 255 0
157 158 0 255 0
158 159 0 255 0
159 160 0 255 0
160 161 0 255 0
161 162 0 255 0
162 163 0 255 0
163 164 0 255 0
164 165 0 255 0
165 166 0 255 0
166 167 0 255 0
167 168 0 255 0
168 169 0 255 0
169 170 0 255 0
170 171 0 255 0
171 172 0 255 0
172 173 0 255 0
173 174 0 255 0
174 175 0 255 0
175 176 0 255 0
176 177 0 255 0
177 178 0 255 0
178 179 0 255 0
179 180 0 255 0
180 181 0 255 0
181 182 0 255 0
182 183 0 255 0
183 184 0 255 0
184 185 0 255 0
185 186 0 255 0
186 187 0 255 0
187 188 0 255 0
188 189 0 255 0
189 190 0 255 0
190 191 0 255 0
191 192 0 255 0
192 193 0 255 0
193 194 0 255 0
194 195 0 255 0
195 143 0 255 0
196 197 0 255 0
197 198 0 255 0
198 199 0 255 0
199 200 0 255 0
200 201 0 255 0
201 202 0 255 0
202 203 0 255 0
203 204 0 255 0
204 205 0 255 0
205 206 0 255 0
206 207 0 255 0
207 208 0 255 0
208 209 0 255 0
209 210 0 255 0
210 211 0 255 0
211 212 0 255 0
212 213 0 255 0
213 214 0 255 0
214 215 0 255 0
215 216 0 255 0
216 217 0 255 0
217 218 0 255 0
218 219 0 255 0
219 220 0 255 0
220 221 0 255 0
221 222 0 255 0
222 223 0 255 0
223 224 0 255 0
224 225 0 255 0
225 226 0 255 0
226 227 0 255 0
227 228 0 255 0
228 229 0 255 0
229 230 0 255 0
230 231 0 255 0
231 232 0 255 0
232 233 0 255 0
233 234 0 255 0
234 235 0 255 0
235 236 0 255 0
236 237 0 255 0
237 238 0 255 0
238 239 0 255 0
239 240 0 255 0
240 241 0 255 0
241 242 0 255 0
242 243 0 255 0
243 244 0 255 0
244 196 0 255 0
245 246 0 255 0
246 247 0 255 0
247 248 0 255 0
248 249 0 255 0
249 250 0 255 0
250 251 0 255 0
251 252 0 255 0
252 253 0 255 0
253 254 0 255 0
254 255 0 255 0
255 256 0 255 0
256 257 0 255 0
257 258 0 255 0
258 259 0 255 0
259 260 0 255 0
260 261 0 255 0
261 262 0 255 0
262 263 0 255 0
263 264 0 255 0
264 265 0 255 0
265 266 0 255 0
266 267 0 255 0
267 268 0 255 0
268 269 0 255 0
269 270 0 255 0
270 271 0 255 0
271 272 0 255 0
272 273 0 255 0
273 274 0 255 0
274 275 0 255 0
275 276 0 255 0
276 277 0 255 0
277 278 0 255 0
278 279 0 255 0
279 280 0 255 0
280 281 0 255 0
281 282 0 255 0
282 283 0 255 0
283 284 0 255 0
284 285 0 255 0
285 286 0 255 0
286 287 0 255 0
287 288 0 255 0
288 289 0 255 0
289 290 0 255 0
290 291 0 255 0
291 292 0 255 0
292 293 0 255 0
293 294 0 255 0
294 295 0 255 0
295 296 0 255 0
296 245 0 255 0
297 298 0 255 0
298 299 0 255 0
299 300 0 255 0
300 301 0 255 0
301 302 0 255 0
302 303 0 255 0
303 304 0 255 0
304 305 0 255 0
305 306 0 255 0
306 307 0 255 0
307 308 0 255 0
308 309 0 255 0
309 310 0 255 0
310 311 0 255 0
311 312 0 255 0
312 313 0 255 0
313 314 0 255 0
314 315 0 255 0
315 316 0 255 0
316 317 0 255 0
317 318 0 255 0
318 319 0 255 0
319 320 0 255 0
320 297 0 255 0
321 322 0 255 0
322 323 0 255 0
323 324 0 255 0
324 325 0 255 0
325 326 0 255 0
326 327 0 255 0
327 328 0 255 0
328 329 0 255 0
329 330 0 255 0
330 331 0 255 0
331 332 0 255 0
332 333 0 255 0
333 334 0 255 0
334 335 0 255 0
335 336 0 255 0
336 337 0 255 0
337 338 0 255 0
338 339 0 255 0
339 340 0 255 0
340 341 0 255 0
341 342 0 255 0
342 343 0 255 0
343 344 0 255 0
344 345 0 255 0
345 346 0 255 0
346 347 0 255 0
347 348 0 255 0
348 349 0 255 0
349 350 0 255 0
350 351 0 255 0
351 352 0 255 0
352 353 0 255 0
353 321 0 255 0
