ply
format ascii 1.0
element vertex 426
property float x
property float y
property float z
element edge 426
property int vertex1
property int vertex2
property uchar red
property uchar green
property uchar blue
end_header
0.2502013955 -0.4675334787 0.1491720736
0.2684969188 -0.4990436223 0.1453438519
0.3117148902 -0.5640630865 0.1364786899
0.3357025415 -0.5982361386 0.1315943782
0.3892766157 -0.6697651693 0.1207763323
0.2899923628 -0.6374616435 0.1389297449
0.2164634523 -0.6262269813 0.1521341653
0.1368553034 -0.5992189721 0.1667108533
0.0794176167 -0.5825685252 0.1771744106
0.0276928212 -0.5569764230 0.1867975267
-0.0214325694 -0.5273546076 0.1960375031
-0.0646597645 -0.4963687470 0.2042610850
-0.1256866887 -0.4546490803 0.2158326275
-0.1558288956 -0.4282541829 0.2216574089
-0.2273039351 -0.3749304291 0.2352943759
-0.2535962892 -0.3481457133 0.2404462800
-0.2967719004 -0.3060504867 0.2488707061
-0.3533535772 -0.2277484435 0.2603481813
-0.3539329206 -0.2268838103 0.2604668885
-0.3544769959 -0.2257150131 0.2605851126
-0.4074133634 -0.1029299036 0.2722591816
-0.4220382152 -0.0519182921 0.2758073821
-0.4243446220 0.0168758606 0.2775150681
-0.4181900254 0.0557156033 0.2771616322
-0.3866586647 0.1283218827 0.2729624449
-0.3734933070 0.1494209092 0.2710349654
-0.3199069205 0.1942346550 0.2624135362
-0.2935255244 0.2195023864 0.2582296517
-0.2373946685 0.2488105790 0.2488655874
-0.2061281765 0.2640740827 0.2436294648
-0.1931919078 0.2664222655 0.2413880868
-0.1396805697 0.2787414146 0.2321657945
-0.1105689906 0.2850974002 0.2271420859
-0.1012400191 0.2879868476 0.2255483240
-0.0371374020 0.2621129760 0.2137327998
-0.0342971490 0.2591834572 0.2131755793
-0.0340557256 0.2569197934 0.2130901398
0.0083287124 0.1752940238 0.2040584110
0.0118129445 0.1318491708 0.2026216937
0.0491068336 0.0469953460 0.1944284248
0.0645756667 -0.0248742572 0.1903368976
0.1066611399 -0.1344537640 0.1808296891
0.1224080333 -0.1868180445 0.1770576665
0.1660219099 -0.3029924568 0.1671557599
0.1840192000 -0.3414815169 0.1632483378
0.1893595725 -0.3548464854 0.1620521397
0.2772138315 -0.1813410596 -0.4151098527
0.2682937417 -0.1244595928 -0.4039881571
0.2488342967 0.0392911768 -0.3691262648
0.2474003079 0.1044663501 -0.3523642584
0.2488090227 0.1960705441 -0.3272390418
0.2558858510 0.2669021584 -0.3050728612
0.2605073900 0.3244689595 -0.2875746108
0.2683130126 0.3906117763 -0.2663281748
0.2639178347 0.4360521043 -0.2561945724
0.2622887120 0.4624905335 -0.2498740829
0.2474623844 0.5048249090 -0.2453413285
0.2474434152 0.5048605015 -0.2453404923
0.2474356238 0.5048735930 -0.2453405571
0.2291543692 0.5271164058 -0.2477573542
0.2289957089 0.5273031524 -0.2477800117
0.2282048921 0.5277371171 -0.2480257241
0.2034615832 0.5418383478 -0.2555738190
0.1214831760 0.5697272889 -0.2856142458
0.1123678857 0.5711990203 -0.2893899008
-0.0085202214 0.5910606425 -0.3393713491
-0.0275012532 0.5924832076 -0.3476723407
-0.0488755343 0.5934898621 -0.3571790600
-0.0958357270 0.5850496538 -0.3809123994
-0.1597891564 0.5716541192 -0.4137420631
-0.2058958486 0.5523679418 -0.4399835958
-0.2464252047 0.5219388354 -0.4666521891
-0.2527349660 0.5128143783 -0.4719765043
-0.2727167802 0.4707774047 -0.4923496360
-0.2782184444 0.4489308989 -0.5007042865
-0.2772533866 0.3956489774 -0.5145023298
-0.2557937584 0.2714830574 -0.5378704942
-0.2545932755 0.2673056672 -0.5384378353
-0.2530805601 0.2622105131 -0.5391076431
-0.1736366163 0.0835956059 -0.5505074091
-0.1431380173 0.0039506600 -0.5578434211
-0.0922071388 -0.0889962823 -0.5593894386
-0.0463950621 -0.1853235312 -0.5641799680
-0.0104524974 -0.2425194915 -0.5630267078
0.0544375180 -0.3598597220 -0.5647074002
0.0778154623 -0.3929427858 -0.5628566025
0.1517422680 -0.5108230636 -0.5605485530
0.1620065976 -0.5261599783 -0.5599527988
0.1672981535 -0.5315634405 -0.5589767100
0.2747883888 -0.6272427148 -0.5353849383
0.3327586966 -0.6556382968 -0.5164602576
0.4190794411 -0.6878809373 -0.4855973310
0.4422513294 -0.6919805766 -0.4760950481
0.4985768583 -0.6936774192 -0.4507874714
0.4930043962 -0.6851187923 -0.4510488280
0.4004167578 -0.5133572366 -0.4474920004
0.3506504262 -0.4197559091 -0.4452384832
0.3479294002 -0.4121009763 -0.4444372159
0.3471936541 -0.6431511719 -0.5473971207
0.3256544185 -0.6469501366 -0.5311842276
0.2640607713 -0.6448791050 -0.4843664144
0.2487919860 -0.6407339360 -0.4726326276
0.2050093972 -0.6259713801 -0.4388852242
0.2037692940 -0.6253889286 -0.4379235737
0.1630028562 -0.5932637974 -0.4058539158
0.1108619568 -0.5531205726 -0.3648696128
0.0773723192 -0.5276348692 -0.3385562475
-0.0132739633 -0.4707997018 -0.2677616114
-0.0280833262 -0.4638012733 -0.2562760366
-0.1249044515 -0.4156863350 -0.1811021769
-0.1304346586 -0.4128239741 -0.1768043948
-0.1398104859 -0.4075753956 -0.1695040676
-0.2050563670 -0.3597584714 -0.1183039114
-0.2720322508 -0.3051418100 -0.0655514163
-0.2780072078 -0.2989041243 -0.0607972679
-0.2807450193 -0.2962170135 -0.0586248719
-0.2918087037 -0.2820401218 -0.0497292504
-0.3630808308 -0.1847021948 0.0077878539
-0.3766698777 -0.1609244320 0.0189380514
-0.4258435987 -0.0544380730 0.0600062333
-0.4407331800 -0.0080124882 0.0729407991
-0.4476306234 0.0444850367 0.0800237143
-0.4507998253 0.0903536851 0.0840437946
-0.4429502631 0.1474245963 0.0800958681
-0.4412481904 0.1615453798 0.0793012745
-0.4402953312 0.1656858739 0.0787239010
-0.4072495517 0.2399114041 0.0562579225
-0.3933940693 0.2609145221 0.0464821206
-0.3308523715 0.3402224646 0.0018099175
-0.2872352066 0.3714369532 -0.0301932285
-0.2312065422 0.4092747961 -0.0713825714
-0.1749703670 0.4397120562 -0.1129899514
-0.1137714005 0.4814433259 -0.1579660848
-0.0151667054 0.5284261870 -0.2311454315
0.0133248455 0.5453151245 -0.2521737452
0.0876545924 0.5794524886 -0.3073825019
0.1267129103 0.5863785880 -0.3367809505
0.1613796204 0.5882747372 -0.3630235917
0.1787612288 0.5835038024 -0.3763828821
0.2000333315 0.5743092119 -0.3928505056
0.2327354731 0.5410263626 -0.4188407353
0.2356369053 0.5371504283 -0.4211791618
0.2517596805 0.5080079426 -0.4344411423
0.2702577383 0.4725026899 -0.4497297956
0.2727708483 0.4662456629 -0.4518573463
0.2934816249 0.3838144290 -0.4704774074
0.2960845515 0.3637942060 -0.4731576827
0.3029931944 0.2455841369 -0.4825626380
0.3306220463 0.1179779837 -0.5080234655
0.3453840371 0.0186225873 -0.5227246990
0.3974695346 -0.1648696594 -0.5687138433
0.4103707930 -0.2373691833 -0.5810574080
0.4240836270 -0.3062030073 -0.5938878386
0.4426122960 -0.4105388426 -0.6116230410
0.4441511743 -0.4916144301 -0.6156453598
0.4444061177 -0.5079077529 -0.6164124812
0.4424438980 -0.5157242893 -0.6151985023
0.4145367450 -0.5878977997 -0.5965601053
0.3883547350 -0.6154605300 -0.5776603497
0.4679798928 -0.7504467716 -0.1829509623
0.4660769639 -0.7499999417 -0.1810102061
0.4610671584 -0.7485976397 -0.1757149989
0.3644624759 -0.7015185032 -0.0571273067
0.2712994916 -0.6621078010 0.0523083696
0.2582790149 -0.6522407407 0.0711879762
0.2350328645 -0.6425355903 0.0983887002
0.1512760233 -0.5957539183 0.2061095579
0.1087700208 -0.5754026090 0.2579891432
0.0730753199 -0.5477652543 0.3102294031
0.0468998943 -0.5171422524 0.3570548175
-0.0056894578 -0.4613961771 0.4463796868
-0.0166045691 -0.4454365991 0.4685291330
-0.0376687983 -0.4207459128 0.5062500271
-0.0893851835 -0.3511454832 0.6062469850
-0.1078158219 -0.3182787703 0.6485144775
-0.1340491355 -0.2331664323 0.7401998211
-0.1350249889 -0.1664124770 0.7959051272
-0.1287937870 -0.1300370811 0.8206685130
-0.0828261471 -0.0250956349 0.8689678042
-0.0705600535 -0.0039833696 0.8761893178
-0.0679469239 -0.0008512417 0.8766047270
-0.0632579557 0.0047684131 0.8773496406
0.0037335205 0.0099064881 0.8261887074
0.0089200624 0.0102801549 0.8222079381
0.0964006486 0.0171974848 0.7555705003
0.1034579321 0.0176707198 0.7501249444
0.1673375150 0.0225918718 0.7013584313
0.1910756329 0.0240822818 0.6829582007
0.2194369642 0.0260616487 0.6611377580
0.2271733430 0.0132460781 0.6442020238
0.2325846498 -0.0197167555 0.6126194640
0.2365997078 -0.0510965914 0.5834931382
0.2348697390 -0.0884068271 0.5542394586
0.2310962075 -0.1753265973 0.4858764171
0.2309593509 -0.1784475711 0.4834228748
0.2310915408 -0.1823525299 0.4801021434
0.2230765830 -0.2635325017 0.4199661968
0.2261861045 -0.3526019295 0.3441445790
0.2258494230 -0.3628317093 0.3360099587
0.2342004117 -0.4042524681 0.2950411567
0.2443807450 -0.4483521123 0.2503567917
0.2494170780 -0.4586523747 0.2377219634
0.2753171790 -0.5080861020 0.1756542249
0.3191003742 -0.5771849476 0.0826286872
0.3288995134 -0.5920557941 0.0622972658
0.3431714273 -0.6121560698 0.0339672058
0.4047948018 -0.6791814371 -0.0721028128
0.4657168707 -0.7451397225 -0.1767154444
0.4716877234 -0.7510409326 -0.1865051209
-0.2225022820 0.2352569796 0.2718220233
-0.2427733844 0.2452006057 0.2509692500
-0.2935268866 0.2610613375 0.1956797093
-0.2946707076 0.2610074075 0.1942934444
-0.3065740977 0.2594376366 0.1795232619
-0.3879140004 0.2484872743 0.0785173866
-0.3954657227 0.2469655782 0.0689677028
-0.4101910134 0.2402205759 0.0490588958
-0.4491216308 0.2143177168 -0.0063266321
-0.4614803790 0.1900133828 -0.0293903002
-0.4648704818 0.1780383437 -0.0375261019
-0.4667276912 0.1501648625 -0.0492476132
-0.4650926652 0.1017255458 -0.0638025290
-0.4620984509 0.0783171989 -0.0682003629
-0.4245802851 -0.0431164355 -0.0647226553
-0.4189574521 -0.0560882861 -0.0624197406
-0.3657456105 -0.1676100419 -0.0367957354
-0.3196078015 -0.2492155587 -0.0094347346
-0.2833951241 -0.3039966950 0.0151998237
-0.2202556903 -0.3803786662 0.0646732964
-0.2000428934 -0.4054008737 0.0803169065
-0.1720792072 -0.4308008838 0.1051009503
-0.1193079989 -0.4685397777 0.1553464148
-0.0562426281 -0.4992902125 0.2202845285
-0.0244076259 -0.5152806237 0.2529054381
-0.0066975335 -0.5218964024 0.2718298022
0.0860514819 -0.5280722824 0.3806423446
0.0968685498 -0.5267256121 0.3940373636
0.1096238483 -0.5215645587 0.4110503994
0.1749224041 -0.4888908327 0.5002768675
0.2434127361 -0.4232664732 0.6045513551
0.2439747605 -0.4226069503 0.6054482682
0.2442070544 -0.4218453644 0.6059856476
0.2740619551 -0.3312045286 0.6725831413
0.2847598028 -0.2501779128 0.7129939768
0.2860783251 -0.2273104495 0.7223650094
0.2824478975 -0.1918017535 0.7301263279
0.2724599318 -0.1359924351 0.7372040700
0.2633449430 -0.1000931435 0.7385395926
0.2563204827 -0.0767637786 0.7380907781
0.2418790752 -0.0417365085 0.7327592711
0.2417792597 -0.0415363111 0.7327081388
0.2415306590 -0.0412477712 0.7325091869
0.2405423886 -0.0401016903 0.7317179592
0.2015216190 0.0047500068 0.7003408490
0.1889042629 0.0194773728 0.6902716153
0.1525744655 0.0624133843 0.6614596609
0.1294928386 0.0899598627 0.6432456292
0.1074808256 0.1164630627 0.6259551425
0.0677447252 0.1065990186 0.5750730719
0.0331555412 0.1003227653 0.5315690184
-0.0057493023 0.0950468757 0.4832448815
-0.0397846910 0.0963200251 0.4429762706
-0.0627313036 0.1071238142 0.4192170643
-0.1095365794 0.1504117419 0.3779975462
-0.1145208086 0.1533124295 0.3730256406
-0.1178776285 0.1551602367 0.3696410688
-0.1679487252 0.2000137378 0.3250496062
-0.2045870404 0.2191149423 0.2877447599
0.2503666125 0.5422028959 -0.3132296688
0.2386653843 0.5539944388 -0.3430050538
0.2250471728 0.5693692758 -0.3793891347
0.2243676043 0.5696353936 -0.3806796273
0.2238632427 0.5696378230 -0.3814329766
0.1907424216 0.5606430447 -0.4213114673
0.1584820935 0.5454118066 -0.4533736507
0.1331563752 0.5290171020 -0.4738935954
0.0924201375 0.4928069157 -0.4965887792
0.0534511071 0.4572129041 -0.5172989666
0.0006118111 0.3967099225 -0.5325539304
-0.0547373539 0.3312862604 -0.5463886217
-0.0764589283 0.3020294608 -0.5480648145
-0.1634612513 0.1844301722 -0.5543427942
-0.2234568931 0.0867272250 -0.5412679736
-0.2268547936 0.0803388608 -0.5396316177
-0.2310270906 0.0684956152 -0.5334317237
-0.2580491814 -0.0060175589 -0.4955729704
-0.2629558021 -0.0307179298 -0.4769928685
-0.2702288851 -0.1124471097 -0.4021734642
-0.2691508826 -0.1367746847 -0.3750751865
-0.2605560321 -0.2180047935 -0.2771574246
-0.2566023133 -0.2526034182 -0.2350149760
-0.2515063555 -0.2735324335 -0.2054969284
-0.2196610626 -0.3654302545 -0.0617890655
-0.1929552628 -0.4061179477 0.0206035248
-0.1600539815 -0.4408783575 0.1060074780
-0.1223490418 -0.4619173822 0.1841832408
-0.0711694482 -0.4800425135 0.2793641144
-0.0276462483 -0.4846141167 0.3489443974
0.0287925119 -0.4829643070 0.4312314710
0.1055331536 -0.4637211409 0.5253037972
0.1291265212 -0.4550276970 0.5513152919
0.1676248264 -0.4335014365 0.5860667339
0.2174618001 -0.4050406442 0.6304302741
0.2442689323 -0.3832849341 0.6475375374
0.2819783368 -0.3383533172 0.6565874832
0.3057128544 -0.2987263052 0.6503929536
0.3118128403 -0.2418262212 0.5998463491
0.3112807867 -0.2409923733 0.5981805104
0.2471751072 -0.2226086550 0.4834866064
0.1789796905 -0.2156086398 0.3746339295
0.1684589576 -0.2127165410 0.3559418291
0.1497498537 -0.1974603841 0.3121037043
0.1128460524 -0.1687927670 0.2271263199
0.1062707631 -0.1330356705 0.1798673502
0.0872329358 -0.0569302838 0.0717742864
0.0927835681 -0.0002384417 0.0206281248
0.1253959179 0.1494526665 -0.0876898889
0.1283511289 0.1584064601 -0.0926736265
0.1324182931 0.1677479883 -0.0964084045
0.1802833308 0.2845782793 -0.1475851773
0.2208468673 0.3740546788 -0.1809662212
0.2279659108 0.3906279205 -0.1877362190
0.2344799144 0.4073079833 -0.1955188328
0.2506118991 0.4583901091 -0.2250347879
0.2559579585 0.4964513244 -0.2569619309
0.2542984408 0.5128132723 -0.2765784634
0.2329081022 -0.4409496243 0.0880413539
0.1925602351 -0.3318001920 -0.0406011231
0.1852367206 -0.3076302400 -0.0679932559
0.1772175886 -0.1650047551 -0.2057250965
0.1767098839 -0.1557963931 -0.2146106917
0.1769130107 -0.1543354233 -0.2158277618
0.2273720960 0.0181938954 -0.3415734668
0.2361905122 0.0363078225 -0.3523840977
0.2953027027 0.1416378562 -0.4099249373
0.3178166525 0.1868919491 -0.4366051859
0.3414705299 0.2248177344 -0.4557141417
0.2971229340 0.2326117118 -0.4930665465
0.2890413819 0.2381673411 -0.5037088467
0.2493248342 0.2320884701 -0.5250485382
0.2222588665 0.2269337872 -0.5386523894
0.2168251059 0.2247795967 -0.5403453149
0.1604965792 0.1984306717 -0.5541684222
0.1186050445 0.1787475551 -0.5643675905
0.1055398946 0.1715993144 -0.5666122384
0.0727933879 0.1493840704 -0.5682510212
-0.0397458431 0.0734881036 -0.5743010098
-0.0620098855 0.0552838735 -0.5725396878
-0.1303956167 -0.0077648975 -0.5605137484
-0.1663445393 -0.0605242671 -0.5359982033
-0.1741359326 -0.0762078784 -0.5267440693
-0.1886090207 -0.1405643236 -0.4768846089
-0.1921476942 -0.1556064058 -0.4653367926
-0.1918477707 -0.1594314094 -0.4615853858
-0.1787118827 -0.2718059991 -0.3484355696
-0.1778139140 -0.2741899623 -0.3456144964
-0.1307644123 -0.4085936686 -0.1889965983
-0.1279930452 -0.4125629535 -0.1834326202
-0.0613527412 -0.5063842403 -0.0511475804
-0.0102041152 -0.5433398800 0.0178718534
0.0483902393 -0.5790668647 0.0908092921
0.0904746877 -0.5934857298 0.1327689995
0.1381209276 -0.5989148641 0.1701686525
0.1944538134 -0.6068969890 0.2158366815
0.2772357644 -0.6018076454 0.2673467268
0.3272522549 -0.5954135848 0.2953904112
0.3429433641 -0.5892399254 0.3003226876
0.3181044134 -0.5668322916 0.2626675799
0.2993137335 -0.5420298308 0.2268996196
0.2766830610 -0.5098970241 0.1817244323
0.2504006798 -0.4697900452 0.1266727639
0.4826250561 -0.7444247937 -0.2967328437
0.4628214602 -0.7178766949 -0.3012085118
0.3782389665 -0.5847946491 -0.3175849067
0.3629569867 -0.5603954335 -0.3204943977
0.3237091972 -0.4780786205 -0.3252326845
0.2775654073 -0.3722061361 -0.3295387079
0.2585648711 -0.3033164940 -0.3277931074
0.2257513786 -0.1663914635 -0.3222809361
0.2126258682 -0.0134735390 -0.3064230230
0.2091278420 0.0306478299 -0.3017283046
0.2121022012 0.1388705721 -0.2854468498
0.2141880518 0.1651891662 -0.2809253574
0.2328506950 0.2814406876 -0.2570558460
0.2344087745 0.2907871136 -0.2551130042
0.2344476217 0.2911590469 -0.2550452417
0.2348864236 0.2937462967 -0.2545043368
0.2521776708 0.3928704950 -0.2335830426
0.2512229656 0.4136487660 -0.2310864357
0.2506427488 0.4584009423 -0.2251004124
0.2405373190 0.4918426801 -0.2246167690
0.2373260284 0.5014634985 -0.2246030547
0.2221593394 0.5211504806 -0.2281204959
0.2134733719 0.5263316486 -0.2309825960
0.1956605344 0.5366978205 -0.2368881287
0.1399468450 0.5556269490 -0.2572360557
0.0926102510 0.5626983621 -0.2757780443
-0.0018481852 0.5770888038 -0.3127389945
-0.0486144935 0.5797253666 -0.3316626684
-0.1060836175 0.5813081221 -0.3551476944
-0.1348329757 0.5760221341 -0.3677417166
-0.1698142312 0.5686303288 -0.3831992426
-0.2753011750 0.5248424129 -0.4328023302
-0.2840945560 0.5188573904 -0.4372620355
-0.3338624102 0.4577852622 -0.4662861488
-0.3418151102 0.4450534852 -0.4713376079
-0.3544920750 0.4138208328 -0.4809113662
-0.3663960264 0.3653780538 -0.4925603217
-0.3683731265 0.3103820914 -0.5010261874
-0.3658311205 0.2878719825 -0.5031089666
-0.3368617574 0.1923019275 -0.5044540076
-0.3299099263 0.1641622028 -0.5055009170
-0.2721200449 0.0371290860 -0.4993346446
-0.2521179646 -0.0109788017 -0.4977762285
-0.1828478335 -0.1330715257 -0.4861872711
-0.1549318958 -0.1850872365 -0.4819081079
-0.0692112076 -0.3054298703 -0.4632900786
-0.0297784083 -0.3671888082 -0.4556157272
0.0526120610 -0.4667062977 -0.4354744363
0.0982205684 -0.5305382525 -0.4255410648
0.1621481404 -0.5921400437 -0.4077411067
0.1976207464 -0.6267291761 -0.3979207606
0.3021297532 -0.6896622693 -0.3635667299
0.3025235682 -0.6898833174 -0.3634350362
0.3027685015 -0.6899659359 -0.3633454976
0.4154785659 -0.7261540044 -0.3218882186
0 1 0 255 0
1 2 0 255 0
2 3 0 255 0
3 4 0 255 0
4 5 0 255 0
5 6 0 255 0
6 7 0 255 0
7 8 0 255 0
8 9 0 255 0
9 10 0 255 0
10 11 0 255 0
11 12 0 255 0
12 13 0 255 0
13 14 0 255 0
14 15 0 255 0
15 16 0 255 0
16 17 0 255 0
17 18 0 255 0
18 19 0 255 0
19 20 0 255 0
20 21 0 255 0
21 22 0 255 0
22 23 0 255 0
23 24 0 255 0
24 25 0 255 0
25 26 0 255 0
26 27 0 255 0
27 28 0 255 0
28 29 0 255 0
29 30 0 255 0
30 31 0 255 0
31 32 0 255 0
32 33 0 255 0
33 34 0 255 0
34 35 0 255 0
35 36 0 255 0
36 37 0 255 0
37 38 0 255 0
38 39 0 255 0
39 40 0 255 0
40 41 0 255 0
41 42 0 255 0
42 43 0 255 0
43 44 0 255 0
44 45 0 255 0
45 0 0 255 0
46 47 0 255 0
47 48 0 255 0
48 49 0 255 0
49 50 0 255 0
50 51 0 255 0
51 52 0 255 0
52 53 0 255 0
53 54 0 255 0
54 55 0 255 0
55 56 0 255 0
56 57 0 255 0
57 58 0 255 0
58 59 0 255 0
59 60 0 255 0
60 61 0 255 0
61 62 0 255 0
62 63 0 255 0
63 64 0 255 0
64 65 0 255 0
65 66 0 255 0
66 67 0 255 0
67 68 0 255 0
68 69 0 255 0
69 70 0 255 0
70 71 0 255 0
71 72 0 255 0
72 73 0 255 0
73 74 0 255 0
74 75 0 255 0
75 76 0 255 0
76 77 0 255 0
77 78 0 255 0
78 79 0 255 0
79 80 0 255 0
80 81 0 255 0
81 82 0 255 0
82 83 0 255 0
83 84 0 255 0
84 85 0 255 0
85 86 0 255 0
86 87 0 255 0
87 88 0 255 0
88 89 0 255 0
89 90 0 255 0
90 91 0 255 0
91 92 0 255 0
92 93 0 255 0
93 94 0 255 0
94 95 0 255 0
95 96 0 255 0
96 97 0 255 0
97 46 0 255 0
98 99 0 255 0
99 100 0 255 0
100 101 0 255 0
101 102 0 255 0
102 103 0 255 0
103 104 0 255 0
104 105 0 255 0
105 106 0 255 0
106 107 0 255 0
107 108 0 255 0
108 109 0 255 0
109 110 0 255 0
110 111 0 255 0
111 112 0 255 0
112 113 0 255 0
113 114 0 255 0
114 115 0 255 0
115 116 0 255 0
116 117 0 255 0
117 118 0 255 0
118 119 0 255 0
119 120 0 255 0
120 121 0 255 0
121 122 0 255 0
122 123 0 255 0
123 124 0 255 0
124 125 0 255 0
125 126 0 255 0
126 127 0 255 0
127 128 0 255 0
128 129 0 255 0
129 130 0 255 0
130 131 0 255 0
131 132 0 255 0
132 133 0 255 0
133 134 0 255 0
134 135 0 255 0
135 136 0 255 0
136 137 0 255 0
137 138 0 255 0
138 139 0 255 0
139 140 0 255 0
140 141 0 255 0
141 142 0 255 0
142 143 0 255 0
143 144 0 255 0
144 145 0 255 0
145 146 0 255 0
146 147 0 255 0
147 148 0 255 0
148 149 0 255 0
149 150 0 255 0
150 151 0 255 0
151 152 0 255 0
152 153 0 255 0
153 154 0 255 0
154 155 0 255 0
155 156 0 255 0
156 157 0 255 0
157 158 0 255 0
158 98 0 255 0
159 160 0 255 0
160 161 0 255 0
161 162 0 255 0
162 163 0 255 0
163 164 0 255 0
164 165 0 255 0
165 166 0 255 0
166 167 0 255 0
167 168 0 255 0
168 169 0 255 0
169 170 0 255 0
170 171 0 255 0
171 172 0 255 0
172 173 0 255 0
173 174 0 255 0
174 175 0 255 0
175 176 0 255 0
176 177 0 255 0
177 178 0 255 0
178 179 0 255 0
179 180 0 255 0
180 181 0 255 0
181 182 0 255 0
182 183 0 255 0
183 184 0 255 0
184 185 0 255 0
185 186 0 255 0
186 187 0 255 0
187 188 0 255 0
188 189 0 255 0
189 190 0 255 0
190 191 0 255 0
191 192 0 255 0
192 193 0 255 0
193 194 0 255 0
194 195 0 255 0
195 196 0 255 0
196 197 0 255 0
197 198 0 255 0
198 199 0 255 0
199 200 0 255 0
200 201 0 255 0
201 202 0 255 0
202 203 0 255 0
203 204 0 255 0
204 205 0 255 0
205 206 0 255 0
206 207 0 255 0
207 208 0 255 0
208 159 0 255 0
209 210 0 255 0
210 211 0 255 0
211 212 0 255 0
212 213 0 255 0
213 214 0 255 0
214 215 0 255 0
215 216 0 255 0
216 217 0 255 0
217 218 0 255 0
218 219 0 255 0
219 220 0 255 0
220 221 0 255 0
221 222 0 255 0
222 223 0 255 0
223 224 0 255 0
224 225 0 255 0
225 226 0 255 0
226 227 0 255 0
227 228 0 255 0
228 229 0 255 0
229 230 0 255 0
230 231 0 255 0
231 232 0 255 0
232 233 0 255 0
233 234 0 255 0
234 235 0 255 0
235 236 0 255 0
236 237 0 255 0
237 238 0 255 0
238 239 0 255 0
239 240 0 255 0
240 241 0 255 0
241 242 0 255 0
242 243 0 255 0
243 244 0 255 0
244 245 0 255 0
245 246 0 255 0
246 247 0 255 0
247 248 0 255 0
248 249 0 255 0
249 250 0 255 0
250 251 0 255 0
251 252 0 255 0
252 253 0 255 0
253 254 0 255 0
254 255 0 255 0
255 256 0 255 0
256 257 0 255 0
257 258 0 255 0
258 259 0 255 0
259 260 0 255 0
260 261 0 255 0
261 262 0 255 0
262 263 0 255 0
263 264 0 255 0
264 265 0 255 0
265 266 0 255 0
266 267 0 255 0
267 209 0 255 0
268 269 0 255 0
269 270 0 255 0
270 271 0 255 0
271 272 0 255 0
272 273 0 255 0
273 274 0 255 0
274 275 0 255 0
275 276 0 255 0
276 277 0 255 0
277 278 0 255 0
278 279 0 255 0
279 280 0 255 0
280 281 0 255 0
281 282 0 255 0
282 283 0 255 0
283 284 0 255 0
284 285 0 255 0
285 286 0 255 0
286 287 0 255 0
287 288 0 255 0
288 289 0 255 0
289 290 0 255 0
290 291 0 255 0
291 292 0 255 0
292 293 0 255 0
293 294 0 255 0
294 295 0 255 0
295 296 0 255 0
296 297 0 255 0
297 298 0 255 0
298 299 0 255 0
299 300 0 255 0
300 301 0 255 0
301 302 0 255 0
302 303 0 255 0
303 304 0 255 0
304 305 0 255 0
305 306 0 255 0
306 307 0 255 0
307 308 0 255 0
308 309 0 255 0
309 310 0 255 0
310 311 0 255 0
311 312 0 255 0
312 313 0 255 0
313 314 0 255 0
314 315 0 255 0
315 316 0 255 0
316 317 0 255 0
317 318 0 255 0
318 319 0 255 0
319 320 0 255 0
320 321 0 255 0
321 322 0 255 0
322 323 0 255 0
323 324 0 255 0
324 325 0 255 0
325 268 0 255 0
326 327 0 255 0
327 328 0 255 0
328 329 0 255 0
329 330 0 255 0
330 331 0 255 0
331 332 0 255 0
332 333 0 255 0
333 334 0 255 0
334 335 0 255 0
335 336 0 255 0
336 337 0 255 0
337 338 0 255 0
338 339 0 255 0
339 340 0 255 0
340 341 0 255 0
341 342 0 255 0
342 343 0 255 0
343 344 0 255 0
344 345 0 255 0
345 346 0 255 0
346 347 0 255 0
347 348 0 255 0
348 349 0 255 0
349 350 0 255 0
350 351 0 255 0
351 352 0 255 0
352 353 0 255 0
353 354 0 255 0
354 355 0 255 0
355 356 0 255 0
356 357 0 255 0
357 358 0 255 0
358 359 0 255 0
359 360 0 255 0
360 361 0 255 0
361 362 0 255 0
362 363 0 255 0
363 364 0 255 0
364 365 0 255 0
365 366 0 255 0
366 367 0 255 0
367 368 0 255 0
368 369 0 255 0
369 370 0 255 0
370 326 0 255 0
371 372 0 255 0
372 373 0 255 0
373 374 0 255 0
374 375 0 255 0
375 376 0 255 0
376 377 0 255 0
377 378 0 255 0
378 379 0 255 0
379 380 0 255 0
380 381 0 255 0
381 382 0 255 0
382 383 0 255 0
383 384 0 255 0
384 385 0 255 0
385 386 0 255 0
386 387 0 255 0
387 388 0 255 0
388 389 0 255 0
389 390 0 255 0
390 391 0 255 0
391 392 0 255 0
392 393 0 255 0
393 394 0 255 0
394 395 0 255 0
395 396 0 255 0
396 397 0 255 0
397 398 0 255 0
398 399 0 255 0
399 400 0 255 0
400 401 0 255 0
401 402 0 255 0
402 403 0 255 0
403 404 0 255 0
404 405 0 255 0
405 406 0 255 0
406 407 0 255 0
407 408 0 255 0
408 409 0 255 0
409 410 0 255 0
410 411 0 255 0
411 412 0 255 0
412 413 0 255 0
413 414 0 255 0
414 415 0 255 0
415 416 0 255 0
416 417 0 255 0
417 418 0 255 0
418 419 0 255 0
419 420 0 255 0
420 421 0 255 0
421 422 0 255 0
422 423 0 255 0
423 424 0 255 0
424 425 0 255 0
425 371 0 255 0
