ply
format ascii 1.0
element vertex 575
property float x
property float y
property float z
element edge 575
property int vertex1
property int vertex2
property uchar red
property uchar green
property uchar blue
end_header
0.1047679066 0.2154259232 0.4734898408
0.0827033592 0.2045887726 0.4788200498
0.0337132765 0.1826041357 0.4903775798
0.0014292746 0.1686556147 0.4979219401
-0.0240308020 0.1472323844 0.5052624656
-0.0577299668 0.1224857912 0.5144968175
-0.0751521394 0.1150463343 0.5185564269
-0.0935092194 0.1026109976 0.5234472529
-0.1394704002 0.0769741955 0.5349589298
-0.1685295962 0.0466787861 0.5441169109
-0.1987909167 0.0228854068 0.5526188888
-0.2131639298 -0.0150678821 0.5602134487
-0.2262009630 -0.0408039978 0.5659425939
-0.2277381759 -0.0585967800 0.5685874313
-0.2330510661 -0.0892187637 0.5736088221
-0.2317762521 -0.1046197793 0.5754394931
-0.2281431227 -0.1269531804 0.5777800637
-0.2178625748 -0.1453481569 0.5784249238
-0.2032023751 -0.1661910022 0.5786254533
-0.1826544856 -0.1884005570 0.5779719177
-0.1350963431 -0.2182316727 0.5735806538
-0.0971118492 -0.2324130935 0.5687864163
-0.0096253502 -0.2465050003 0.5552661764
0.1127744087 -0.2521154116 0.5344682457
0.1377279117 -0.2496031323 0.5297403359
0.2707137870 -0.2202094930 0.5024080102
0.2755401816 -0.2180179317 0.5012659607
0.3663922728 -0.1723536525 0.4791795090
0.4371544681 -0.1155179483 0.4591388773
0.4504253475 -0.1021602293 0.4550203169
0.4808264332 -0.0552489251 0.4434089236
0.4930406463 0.0244387406 0.4306254311
0.4932600421 0.0260585548 0.4303706650
0.4929410727 0.0277117478 0.4302062157
0.4385491248 0.1024504017 0.4298080883
0.4171870390 0.1250977481 0.4305465324
0.3642770966 0.1556157302 0.4357882433
0.3169383596 0.1856206387 0.4401176936
0.2468811520 0.2103049730 0.4491563446
0.2219789780 0.2197104604 0.4522849346
0.2109620501 0.2217741028 0.4539489249
0.1165931531 0.2190368344 0.4709263570
0.4928397748 0.0240843544 0.4188265634
0.4893784368 0.0305792815 0.4186731600
0.4687071561 0.0611195396 0.4187814103
0.4352170958 0.1071292002 0.4193876904
0.4226079415 0.1204657097 0.4201110645
0.3536398173 0.1604314871 0.4281639456
0.3184998309 0.1828465638 0.4320121010
0.2285456549 0.2149316763 0.4450045676
0.2214866633 0.2176368072 0.4460008638
0.2181737880 0.2182729837 0.4465471046
0.1150153350 0.2160055665 0.4662983042
0.1074330510 0.2137263950 0.4680124206
0.0930052574 0.2067081368 0.4716071229
0.0362379349 0.1814721312 0.4854554323
-0.0003886861 0.1658012220 0.4943144946
-0.0229183716 0.1468779863 0.5009169186
-0.0530106929 0.1248298600 0.5093347900
-0.0754786090 0.1152197268 0.5147688568
-0.0986977791 0.0994753144 0.5211065966
-0.1402949651 0.0762933793 0.5318366561
-0.1669158786 0.0485356296 0.5403084947
-0.1997904282 0.0226555342 0.5497274046
-0.2154922396 -0.0186648318 0.5578229232
-0.2271893199 -0.0417361126 0.5628960507
-0.2285948737 -0.0576007137 0.5651317309
-0.2343734920 -0.0905130681 0.5703101127
-0.2332405082 -0.1048867373 0.5718815071
-0.2294690366 -0.1287154688 0.5741292578
-0.2199211523 -0.1460822172 0.5744842123
-0.2042642953 -0.1686810733 0.5743360259
-0.1850285412 -0.1898048139 0.5733291660
-0.1355484360 -0.2213485905 0.5679083280
-0.1014383604 -0.2343783984 0.5630888903
-0.0111851317 -0.2494250073 0.5479237786
0.1169740546 -0.2559300027 0.5245436168
0.1321186778 -0.2544834981 0.5215056426
0.2248225296 -0.2343589101 0.5015097063
0.2679526368 -0.2249795326 0.4922046263
0.2717006654 -0.2239831430 0.4913734903
0.3592342295 -0.1801800098 0.4694124618
0.3635876867 -0.1781103026 0.4683337529
0.3697403672 -0.1740636721 0.4666699318
0.4154814690 -0.1370445932 0.4534391808
0.4435306382 -0.1145651054 0.4453533476
0.4482006477 -0.1098714933 0.4438890020
0.4832710707 -0.0557364068 0.4305463491
0.4944990810 0.0182281080 0.4192407478
0.3902460641 -0.0402619289 0.1223127555
0.3885605570 -0.0372996804 0.1223833599
0.3750852489 -0.0247502979 0.1252819908
0.3353043340 0.0184590373 0.1325472558
0.3235320742 0.0273988068 0.1355038088
0.2235948447 0.0793378109 0.1656244561
0.1949095142 0.0988704365 0.1733005529
0.0445712499 0.1569594961 0.2228142607
0.0353803391 0.1636582879 0.2251813738
0.0100311435 0.1737392468 0.2334700713
-0.1009377708 0.2080268080 0.2718184102
-0.1856102144 0.1860546620 0.3111710371
-0.2110122729 0.1747984459 0.3239549199
-0.2632116589 0.0852198602 0.3641561479
-0.2732912310 0.0732832580 0.3707949749
-0.2809164100 0.0427406458 0.3803275064
-0.2990317121 -0.0340597014 0.4038630106
-0.2986125886 -0.0731371570 0.4118838903
-0.3032586951 -0.1239556605 0.4244449225
-0.2999674413 -0.1400132820 0.4264609266
-0.2837269136 -0.1901929284 0.4303170220
-0.2655756560 -0.2177354173 0.4286429910
-0.2453188324 -0.2406920808 0.4251434729
-0.2002767774 -0.2727313209 0.4133773665
-0.1501563018 -0.2943600985 0.3973446614
-0.0988243435 -0.3072248911 0.3789773821
-0.0538192500 -0.3150564686 0.3621511321
0.0144383407 -0.3278131403 0.3368156171
0.0343769566 -0.3300116233 0.3290945759
0.0795317074 -0.3328799653 0.3111663347
0.1321645382 -0.3376731029 0.2905729514
0.1607741293 -0.3382513307 0.2789540087
0.1986548864 -0.3312324052 0.2619377715
0.2408644450 -0.3248831191 0.2432855711
0.2542353001 -0.3219324317 0.2371801019
0.2649329454 -0.3197985173 0.2323428478
0.3232268513 -0.2985968605 0.2039764014
0.3423848551 -0.2922543713 0.1947850142
0.4176196914 -0.2490888731 0.1548618451
0.4224458833 -0.2468751453 0.1524172550
0.4898542261 -0.1854214937 0.1118715064
0.4986346718 -0.1793501955 0.1069954894
0.4945666240 -0.1763051919 0.1080264381
0.4615835823 -0.1455939310 0.1151224533
0.4508401694 -0.1349662774 0.1173029338
0.4498196861 -0.1330536955 0.1173207106
0.4206057431 -0.0900341201 0.1202895194
0.4182420977 -0.0844364022 0.1200858581
0.4138157094 -0.0906540455 0.1045386104
0.3859630637 -0.0432181123 0.1072931797
0.3825433317 -0.0393518379 0.1080607114
0.3346054289 0.0136467981 0.1190828916
0.3147774502 0.0290951999 0.1250612253
0.2260209827 0.0762765410 0.1566399575
0.1906005435 0.1007154541 0.1680120443
0.0426910545 0.1576332673 0.2253970822
0.0361071285 0.1623023582 0.2274831998
0.0220607660 0.1675102476 0.2329761016
-0.0963784082 0.1984634955 0.2821341816
-0.1556809517 0.1789963680 0.3144149212
-0.2038555865 0.1529655794 0.3428786062
-0.2369294986 0.0909829738 0.3720929265
-0.2629672806 0.0576860671 0.3916934426
-0.2849768450 -0.0363854173 0.4227179371
-0.2867295011 -0.0442897446 0.4252790881
-0.2866739906 -0.0479703936 0.4260599652
-0.2929002012 -0.1207761729 0.4449659113
-0.2881448824 -0.1441248412 0.4478396328
-0.2759330694 -0.1823539929 0.4504542415
-0.2541329550 -0.2162405200 0.4475874938
-0.2394822066 -0.2332932686 0.4444064635
-0.1906124713 -0.2693901831 0.4292378928
-0.1487168579 -0.2883533794 0.4136064903
-0.0899863494 -0.3042985651 0.3893612168
-0.0512383430 -0.3117527692 0.3726929001
0.0111186414 -0.3245593534 0.3460463991
0.0370728863 -0.3279535412 0.3345310168
0.0878156787 -0.3321695074 0.3114867958
0.1329876307 -0.3373248194 0.2912799803
0.1607903801 -0.3384459469 0.2783930045
0.1971865674 -0.3324705174 0.2598907168
0.2350441139 -0.3276129355 0.2409432692
0.2505210373 -0.3244672640 0.2329428517
0.2636189562 -0.3220925654 0.2262352331
0.3173259695 -0.3034533027 0.1967791156
0.3412146574 -0.2959685152 0.1838538563
0.4095610313 -0.2579043627 0.1432232201
0.4235398297 -0.2517745819 0.1352760924
0.4793864618 -0.2021724120 0.0980197218
0.5024937249 -0.1868885641 0.0837533850
0.4915151627 -0.1785507876 0.0871108644
0.4522061149 -0.1414817823 0.0975502178
0.4462081459 -0.1357421428 0.0991248032
0.4150332100 -0.0921222072 0.1042854562
0.1176434628 0.0778005098 0.8562743377
0.0504052617 0.0955362975 0.8773464606
0.0187960114 0.0685480223 0.8769943503
-0.0238413194 0.0190047219 0.8727039269
-0.0289876200 -0.0159967381 0.8637585125
-0.0106748289 -0.0687173961 0.8441125788
0.0446527606 -0.1031640477 0.8210082054
0.1616983244 -0.1186832535 0.7887854921
0.2177422588 -0.1133117019 0.7770742659
0.2575909545 -0.0921034543 0.7737968381
0.3106930002 -0.0597571742 0.7706154136
0.3338373761 -0.0419692506 0.7703003028
0.3533909461 -0.0329169160 0.7682987653
0.3623410441 -0.0142273774 0.7716066441
0.3627229172 -0.0116344715 0.7722691693
0.3705964791 0.0031491138 0.7746977225
0.3704050402 0.0070683840 0.7758811685
0.3271092389 0.0187348392 0.7895213210
0.2672909520 0.0360575702 0.8087164792
0.1725566430 0.0621579376 0.8387285968
0.5639708696 -0.2880740693 -0.3630084205
0.5354659200 -0.2658761237 -0.3715729775
0.4468335092 -0.1840375466 -0.4011482168
0.4163980530 -0.1550156929 -0.4115152774
0.3439040333 -0.0731456642 -0.4391364015
0.3292082892 -0.0536271132 -0.4454070623
0.3007726640 -0.0079962808 -0.4593472129
0.2248924949 0.1074808651 -0.4951015489
0.1662442681 0.1983687071 -0.5231119200
0.0175676931 0.3598656804 -0.5782870672
0.0107305284 0.3677285844 -0.5809246133
0.0043243070 0.3729468069 -0.5829021348
-0.0746788850 0.4074217681 -0.6004246860
-0.1154103714 0.4205633892 -0.6083943550
-0.1272482432 0.4215082795 -0.6100501442
-0.1392930022 0.4209472102 -0.6113850627
-0.1857941271 0.4202687663 -0.6168805866
-0.2476357913 0.3969055503 -0.6190283577
-0.2749106410 0.3835478267 -0.6192740273
-0.3095145566 0.3571986264 -0.6174254525
-0.3687223185 0.2985767669 -0.6111519740
-0.4150530197 0.2346463150 -0.6020937920
-0.4356394748 0.2031261906 -0.5973535490
-0.4730882375 0.0853027540 -0.5748332882
-0.4746948287 0.0774479317 -0.5732237911
-0.4663102098 -0.0317053730 -0.5471253560
-0.4635670551 -0.0611996519 -0.5400152685
-0.4631925370 -0.0625426231 -0.5396611867
-0.4620459219 -0.0647458906 -0.5390156054
-0.3941282068 -0.1711501976 -0.5063135735
-0.3301534169 -0.2287028782 -0.4853150497
-0.2843681735 -0.2729241777 -0.4695902128
-0.2160826745 -0.3060925122 -0.4536704264
-0.1478743690 -0.3450816465 -0.4364226149
-0.0968239036 -0.3563535086 -0.4276284550
-0.0285061766 -0.3783702714 -0.4142669744
0.0249522244 -0.3790721930 -0.4076087567
0.1269381016 -0.3866198930 -0.3934799567
0.1544838235 -0.3831119998 -0.3909382371
0.1746756043 -0.3810918954 -0.3889484222
0.2772165232 -0.3714351844 -0.3787051097
0.3245794267 -0.3619310507 -0.3751326716
0.3980221589 -0.3484355072 -0.3693077623
0.4463147971 -0.3273745948 -0.3682776554
0.5071795263 -0.3131659832 -0.3641452212
0.5348972697 -0.2997053883 -0.3638693615
0.5655025131 -0.2888684889 -0.3853207117
0.5442101537 -0.2723099135 -0.3904240120
0.4440443810 -0.1804407858 -0.4156354620
0.4181177739 -0.1558732753 -0.4222290500
0.3429004105 -0.0717309987 -0.4424669170
0.3291798503 -0.0535616941 -0.4464016024
0.2980772695 -0.0037638803 -0.4560629229
0.2346254031 0.0931029227 -0.4753656963
0.1578618780 0.2126768156 -0.4989235563
0.0825569259 0.2959557594 -0.5191021566
0.0225833051 0.3670395085 -0.5355827118
-0.0511878560 0.4281557991 -0.5535867962
-0.0651066737 0.4343418364 -0.5565231573
-0.0771526823 0.4381894328 -0.5589346492
-0.1230660389 0.4499310466 -0.5678741417
-0.1954515928 0.4633154052 -0.5815260797
-0.2035145066 0.4654428382 -0.5831015988
-0.2113791789 0.4638060377 -0.5843185370
-0.2918372867 0.4187015201 -0.5943245596
-0.3065537316 0.4025290894 -0.5954720928
-0.3279963677 0.3791327438 -0.5971585628
-0.3809997168 0.3077227358 -0.6001573791
-0.4191237679 0.2322497583 -0.6002369277
-0.4329384823 0.1996092469 -0.5998097632
-0.4469157397 0.1104005095 -0.5945363750
-0.4481078215 0.0652139071 -0.5908486348
-0.4285529363 -0.0235816770 -0.5798209256
-0.3989887752 -0.0951284981 -0.5685512034
-0.3606903841 -0.1466959999 -0.5574949102
-0.3332883398 -0.1693174181 -0.5508142498
-0.2348891688 -0.2562040481 -0.5263371598
-0.2206863290 -0.2629364537 -0.5233046785
-0.1028884753 -0.3279983043 -0.4973586269
-0.1017095136 -0.3282679430 -0.4971318244
0.0072618490 -0.3635979644 -0.4752717131
0.0122810598 -0.3637226043 -0.4743943173
0.0356922955 -0.3656694674 -0.4701841964
0.1397355692 -0.3698917835 -0.4518554514
0.1988915162 -0.3743639516 -0.4412557732
0.2726936463 -0.3678042258 -0.4290777513
0.2948190993 -0.3635261261 -0.4256260273
0.4021536623 -0.3444770561 -0.4087341981
0.4355853390 -0.3301057137 -0.4041999535
0.5122245316 -0.3121729117 -0.3925120412
0.5313870435 -0.3027487743 -0.3900153381
0.5602289146 -0.2861332244 -0.3084973071
0.5110013231 -0.2478756813 -0.3188315962
0.4606190911 -0.2018149438 -0.3295433675
0.4051390229 -0.1494010921 -0.3413720991
0.3711466953 -0.1115458037 -0.3487318122
0.3317240483 -0.0594142082 -0.3574282194
0.2846199966 0.0159228798 -0.3680743358
0.2674401080 0.0429152823 -0.3719477283
0.2498636587 0.0746256697 -0.3759906330
0.1839207765 0.1778038984 -0.3908497843
0.1463136557 0.2314505247 -0.3992222972
0.0722868700 0.3274209797 -0.4155146016
0.0485450670 0.3570629782 -0.4207176021
-0.0093697117 0.4168507585 -0.4331646821
-0.0134483341 0.4219945878 -0.4340595190
-0.0196984514 0.4298787365 -0.4354308084
-0.0661401413 0.4645433307 -0.4451523251
-0.0884856510 0.4821306433 -0.4498476211
-0.0973434384 0.4888936782 -0.4517047617
-0.0996168175 0.4904366632 -0.4521776319
-0.1235751957 0.5005276416 -0.4570403554
-0.1392019687 0.5063066242 -0.4601963461
-0.2423779676 0.5119665621 -0.4803981492
-0.2696016602 0.5057460721 -0.4855776365
-0.3513071281 0.4629990868 -0.5006516430
-0.4017068418 0.4118043729 -0.5094643430
-0.4127114499 0.3907826970 -0.5111960119
-0.4420799202 0.3419534379 -0.5159596468
-0.4677962392 0.2922041553 -0.5199941145
-0.4763133303 0.2755142457 -0.5213261346
-0.5054584810 0.1713196522 -0.5249632470
-0.5062063220 0.1676027673 -0.5250361630
-0.5068200569 0.1627854949 -0.5250614396
-0.5041806427 0.0498856503 -0.5223389708
-0.4842089126 -0.0428642804 -0.5166356086
-0.4711856434 -0.0777586768 -0.5134170436
-0.4489418906 -0.1130399390 -0.5083954398
-0.3998138758 -0.1753083174 -0.4976108497
-0.3300396134 -0.2308586812 -0.4829373066
-0.2816484907 -0.2720051324 -0.4727093882
-0.2164627163 -0.3025298850 -0.4594188864
-0.1421618181 -0.3429123118 -0.4441605976
-0.0973584783 -0.3532804362 -0.4352333895
-0.0247707318 -0.3768275209 -0.4206380232
0.0242984587 -0.3782802347 -0.4110545415
0.1253449578 -0.3870547439 -0.3912064821
0.1562518317 -0.3834154566 -0.3852592898
0.1830294983 -0.3809570011 -0.3800930640
0.2787509496 -0.3726670196 -0.3616157409
0.3393705747 -0.3611382839 -0.3500370236
0.3948897697 -0.3514366930 -0.3394157525
0.4584749803 -0.3242792934 -0.3275652797
0.4992934702 -0.3147182943 -0.3198038730
0.5418710772 -0.2936590577 -0.3119248441
0.0092811457 0.1086485649 -0.7502599220
-0.0009988249 0.1070158212 -0.7473309400
-0.0485802867 0.0978493108 -0.7332358383
-0.0815648360 0.0962360237 -0.7250502223
-0.1204883222 0.1044310328 -0.7187677754
-0.1767124944 0.1009859205 -0.7045824327
-0.2553100571 0.1019913751 -0.6866989819
-0.3682505544 0.0449710736 -0.6414508270
-0.3790274533 0.0391476101 -0.6370052850
-0.3816782664 0.0346463146 -0.6348855781
-0.3820521663 0.0283377743 -0.6326893429
-0.3487084165 -0.1213348951 -0.5903685456
-0.3401877822 -0.1317017617 -0.5888770542
-0.3351194678 -0.1346299993 -0.5890727423
-0.3212450484 -0.1437022524 -0.5892552257
-0.2126337171 -0.1803209306 -0.6021871765
-0.1567755010 -0.2230438059 -0.6008492171
-0.1200972258 -0.2300068314 -0.6070231749
-0.0256501422 -0.2728251681 -0.6145985650
-0.0128362124 -0.2739544801 -0.6171913180
0.0163721266 -0.2778020418 -0.6226754766
0.1008272164 -0.2641248661 -0.6468265969
0.1822009760 -0.2470369480 -0.6714039796
0.2194518520 -0.2290425103 -0.6860563907
0.2780230086 -0.1941480921 -0.7113023633
0.2974664494 -0.1754080835 -0.7220761565
0.3417976282 -0.0865573693 -0.7620640276
0.3369546886 -0.0691016055 -0.7667785551
0.2964951998 0.0515905383 -0.7977588338
0.2429622415 0.0623492785 -0.7889470764
0.1723763172 0.0859857376 -0.7804885569
0.1108627155 0.0977312614 -0.7701567876
0.0672878707 0.0981241936 -0.7601871142
0.0166470861 0.0701919081 -0.7557333184
-0.0237616315 0.0643286045 -0.7441727751
-0.0507984099 0.0594996460 -0.7361281117
-0.1046875911 0.0574929458 -0.7226980638
-0.1221219922 0.0613085086 -0.7198794786
-0.2085254203 0.0571898679 -0.6980382745
-0.2430116993 0.0580728217 -0.6901846076
-0.3058079233 0.0280627498 -0.6650748215
-0.2938383890 -0.0665950607 -0.6355453364
-0.2958120790 -0.1229243777 -0.6158216133
-0.2089476064 -0.1518033927 -0.6264911328
-0.1309589696 -0.2116374185 -0.6244792346
-0.1232686323 -0.2130675464 -0.6258089812
-0.0644766873 -0.2396356990 -0.6306297460
-0.0172084258 -0.2563086583 -0.6361081344
-0.0092222535 -0.2594123499 -0.6369357103
0.0953526631 -0.2414773024 -0.6677975484
0.1559346988 -0.2281342014 -0.6866858706
0.2118564971 -0.2001327857 -0.7094832647
0.2503220832 -0.1764480267 -0.7266768014
0.2814595002 -0.1453812809 -0.7446609663
0.3016753709 -0.1033019344 -0.7638271532
0.2774186596 -0.0207424848 -0.7863148991
0.2626389159 0.0214922529 -0.7972582409
0.2442092431 0.0253182446 -0.7942078534
0.1573170963 0.0548077304 -0.7837404874
0.1223524370 0.0617060897 -0.7778301417
0.0549798667 0.0629574360 -0.7623252722
0.5228772726 -0.2262229212 -0.0382924648
0.4770540437 -0.1922291211 -0.0268707315
0.4754890105 -0.1908814341 -0.0264621730
0.4685317687 -0.1845496559 -0.0246122535
0.4226738174 -0.1405792351 -0.0121976169
0.4169188574 -0.1322369277 -0.0103602911
0.3830107754 -0.0903350477 -0.0002519953
0.3754572945 -0.0765291973 0.0024420577
0.3379734391 -0.0331077435 0.0133295620
0.3292462806 -0.0232530660 0.0158392270
0.2857685249 0.0097609041 0.0267515233
0.2562117464 0.0388170303 0.0348239283
0.2492615056 0.0470646124 0.0368621103
0.1465004090 0.1214734816 0.0622955497
0.1292779095 0.1395205186 0.0671096864
0.0057524039 0.2300187949 0.0977865817
-0.0003607011 0.2363686933 0.0994898269
-0.0338075799 0.2630140886 0.1080079741
-0.1062974700 0.3151489531 0.1259141808
-0.1322371088 0.3237239718 0.1313245997
-0.1853984983 0.3498669526 0.1432604350
-0.2473004300 0.3562885682 0.1547828966
-0.2544500055 0.3571924099 0.1561297617
-0.2612476353 0.3520409155 0.1568157880
-0.2714673212 0.3415167995 0.1575722737
-0.3554399008 0.2330859641 0.1616163563
-0.4023166036 0.1581319336 0.1624472475
-0.4352583640 0.0614620494 0.1586793305
-0.4472431701 -0.0277123808 0.1519668925
-0.4505296951 -0.0728396961 0.1480813427
-0.4522839233 -0.1001697433 0.1456866366
-0.4460530277 -0.1704591647 0.1376383593
-0.4390198017 -0.2009660944 0.1333838900
-0.4271642941 -0.2331294433 0.1281174413
-0.4198940552 -0.2500366591 0.1251664460
-0.4089052244 -0.2712479360 0.1211357073
-0.3864064060 -0.2972362100 0.1146080984
-0.3450632478 -0.3396162119 0.1031448319
-0.3306224242 -0.3488720911 0.0996894768
-0.2813252728 -0.3805921810 0.0878816458
-0.2440761025 -0.3937901317 0.0800248514
-0.1918981826 -0.4114753160 0.0690985566
-0.1346433504 -0.4204397034 0.0581419177
-0.0698386511 -0.4236109723 0.0464304129
0.0501780442 -0.4187878558 0.0257989700
0.0608540763 -0.4181101655 0.0239883035
0.0657154944 -0.4176315111 0.0231806228
0.1858943638 -0.3910685467 0.0046709644
0.2730267709 -0.3679439901 -0.0083665877
0.3073339389 -0.3580834260 -0.0134252054
0.3319971034 -0.3521301602 -0.0171741128
0.3922482271 -0.3142868862 -0.0240279511
0.4299696967 -0.2968227219 -0.0289349963
0.4964471945 -0.2433379523 -0.0353368133
0.5164091697 -0.2284365829 -0.0373738120
0.4126321684 -0.0906417895 0.1005125030
0.3864284778 -0.0417424043 0.1119381693
0.3846497477 -0.0396469398 0.1125377967
0.3351211503 0.0171977446 0.1290182326
0.3213172771 0.0278279705 0.1328619815
0.2262677561 0.0759651655 0.1557261037
0.1887161650 0.1015223084 0.1656992989
0.0661974603 0.1492097062 0.1931063692
0.0284894202 0.1765142839 0.2033570375
-0.1133144299 0.2386417047 0.2360750113
-0.1154430772 0.2401377805 0.2366471581
-0.1198451366 0.2415738581 0.2375920157
-0.2145509467 0.2548844096 0.2553914179
-0.2820020417 0.2060448872 0.2596837905
-0.3269798388 0.1695323250 0.2619788066
-0.3551286780 0.1110554030 0.2582931316
-0.3847433414 0.0307074143 0.2517089020
-0.3950300841 -0.0342231821 0.2440992289
-0.4052433738 -0.0992263285 0.2364668045
-0.3994958090 -0.1877765981 0.2227717469
-0.3981626072 -0.1939801915 0.2216562209
-0.3777493296 -0.2483853532 0.2104102530
-0.3554191237 -0.2780058333 0.2024060663
-0.3347973720 -0.3023835180 0.1954422145
-0.3175145525 -0.3204535902 0.1899452800
-0.2439682667 -0.3682268000 0.1707403902
-0.2435738011 -0.3684840548 0.1706372377
-0.2413855243 -0.3692643610 0.1701579957
-0.1425325439 -0.3957127298 0.1497741179
-0.1028817651 -0.4010085023 0.1423618106
0.0173499219 -0.4088305758 0.1210698430
0.0263775290 -0.4081382441 0.1196551108
0.0431570703 -0.4064026938 0.1170900723
0.1351231534 -0.3935231083 0.1035156118
0.2218167987 -0.3743214574 0.0917344682
0.2320690618 -0.3720375618 0.0903431361
0.2459034448 -0.3683454612 0.0885534070
0.3300708076 -0.3313384883 0.0797559077
0.3640238109 -0.3077182135 0.0774566254
0.4275620143 -0.2697886629 0.0722520527
0.4597668738 -0.2335684300 0.0720575105
0.5046737032 -0.1911469870 0.0706239250
0.4897123293 -0.1798775076 0.0747537366
0.4545393967 -0.1463848760 0.0854688355
0.4440044691 -0.1361950722 0.0887009393
0.4151094359 -0.0937438138 0.0996509904
0.0979925823 0.0666013038 0.8922125802
0.0751848915 0.0734463965 0.8978535021
0.0586439058 0.0644438344 0.8952739656
0.0143146149 0.0333504899 0.8850335793
-0.0243447949 -0.0183717794 0.8643512755
-0.0212242644 -0.0703200252 0.8392164371
0.0433501830 -0.1089352797 0.8140589343
0.1883686932 -0.1073350815 0.7997430120
0.2131605971 -0.1022942613 0.7995724355
0.2211766191 -0.0964304999 0.8015393826
0.2265271620 -0.0917869386 0.8032007431
0.2671619595 -0.0373801148 0.8249597663
0.2829344136 -0.0261061448 0.8287040392
0.2987654211 -0.0087974187 0.8353244062
0.3150520477 -0.0028775381 0.8364581127
0.2467669885 0.0193441973 0.8541719742
0.1985796081 0.0343843100 0.8663659964
0.1133290229 0.0511114408 0.9069495757
0.1255001430 0.0336827676 0.8970332762
0.0773971244 0.0212931619 0.8975390445
0.0308825031 -0.0466233520 0.8714023055
0.0318172043 -0.0622621724 0.8638337306
0.0510971092 -0.0746115602 0.8553889021
0.1269136705 -0.0767077254 0.8442987253
0.2131282348 -0.0664180896 0.8377201076
0.2375096804 -0.0353392076 0.8492682410
0.2447087551 -0.0304429517 0.8506405700
0.2703688740 -0.0038643104 0.8598763561
0.2807296681 -0.0003420455 0.8601737838
0.2387105266 0.0127835419 0.8720150417
0.2110698620 0.0210537899 0.8796311311
0.1075085404 0.0720245303 0.8748094512
0.0602021256 0.0868028436 0.8854541158
0.0251735436 0.0678911598 0.8799199462
-0.0662891867 0.0036838488 0.8588066096
-0.0666588566 0.0031543513 0.8585999465
-0.0668030052 0.0028490827 0.8584749628
-0.0667950725 -0.0007276509 0.8568669622
-0.0576046385 -0.0758467896 0.8223317925
0.0389342697 -0.1285005323 0.7904999706
0.1476868168 -0.1246451133 0.7830288648
0.2163754776 -0.1100250274 0.7837858211
0.2376702530 -0.0944705930 0.7889735794
0.2520330800 -0.0820805237 0.7933259678
0.2853755659 -0.0386337210 0.8100285368
0.3067008790 -0.0234097734 0.8150651949
0.3173162560 -0.0120201090 0.8192851614
0.3375121300 -0.0045367288 0.8209389112
0.2527049683 0.0241796995 0.8410208198
0.1886313012 0.0450018769 0.8558005081
-0.2238805960 0.0360507849 -0.6948795993
-0.2406403974 0.0496046873 -0.6908566868
-0.3358777306 0.0852029022 -0.6551075374
-0.3897927889 0.1008359960 -0.6334631755
-0.4390181786 0.0610313035 -0.5968742673
-0.4424191493 -0.0390637039 -0.5640559235
-0.4046102301 -0.0921985652 -0.5661119764
-0.3443559312 -0.1347500684 -0.5824971102
-0.3349905571 -0.1370719807 -0.5863793587
-0.3241052091 -0.1405907570 -0.5906365215
-0.2042710803 -0.1156235199 -0.6573252830
-0.1987442675 -0.1165664864 -0.6597492762
-0.1866094337 -0.1061108183 -0.6689691554
-0.1951021463 -0.0960490743 -0.6679243478
-0.2060969172 0.0238794247 -0.6998361300
0 1 0 255 0
1 2 0 255 0
2 3 0 255 0
3 4 0 255 0
4 5 0 255 0
5 6 0 255 0
6 7 0 255 0
7 8 0 255 0
8 9 0 255 0
9 10 0 255 0
10 11 0 255 0
11 12 0 255 0
12 13 0 255 0
13 14 0 255 0
14 15 0 255 0
15 16 0 255 0
16 17 0 255 0
17 18 0 255 0
18 19 0 255 0
19 20 0 255 0
20 21 0 255 0
21 22 0 255 0
22 23 0 255 0
23 24 0 255 0
24 25 0 255 0
25 26 0 255 0
26 27 0 255 0
27 28 0 255 0
28 29 0 255 0
29 30 0 255 0
30 31 0 255 0
31 32 0 255 0
32 33 0 255 0
33 34 0 255 0
34 35 0 255 0
35 36 0 255 0
36 37 0 255 0
37 38 0 255 0
38 39 0 255 0
39 40 0 255 0
40 41 0 255 0
41 0 0 255 0
42 43 0 255 0
43 44 0 255 0
44 45 0 255 0
45 46 0 255 0
46 47 0 255 0
47 48 0 255 0
48 49 0 255 0
49 50 0 255 0
50 51 0 255 0
51 52 0 255 0
52 53 0 255 0
53 54 0 255 0
54 55 0 255 0
55 56 0 255 0
56 57 0 255 0
57 58 0 255 0
58 59 0 255 0
59 60 0 255 0
60 61 0 255 0
61 62 0 255 0
62 63 0 255 0
63 64 0 255 0
64 65 0 255 0
65 66 0 255 0
66 67 0 255 0
67 68 0 255 0
68 69 0 255 0
69 70 0 255 0
70 71 0 255 0
71 72 0 255 0
72 73 0 255 0
73 74 0 255 0
74 75 0 255 0
75 76 0 255 0
76 77 0 255 0
77 78 0 255 0
78 79 0 255 0
79 80 0 255 0
80 81 0 255 0
81 82 0 255 0
82 83 0 255 0
83 84 0 255 0
84 85 0 255 0
85 86 0 255 0
86 87 0 255 0
87 88 0 255 0
88 42 0 255 0
89 90 0 255 0
90 91 0 255 0
91 92 0 255 0
92 93 0 255 0
93 94 0 255 0
94 95 0 255 0
95 96 0 255 0
96 97 0 255 0
97 98 0 255 0
98 99 0 255 0
99 100 0 255 0
100 101 0 255 0
101 102 0 255 0
102 103 0 255 0
103 104 0 255 0
104 105 0 255 0
105 106 0 255 0
106 107 0 255 0
107 108 0 255 0
108 109 0 255 0
109 110 0 255 0
110 111 0 255 0
111 112 0 255 0
112 113 0 255 0
113 114 0 255 0
114 115 0 255 0
115 116 0 255 0
116 117 0 255 0
117 118 0 255 0
118 119 0 255 0
119 120 0 255 0
120 121 0 255 0
121 122 0 255 0
122 123 0 255 0
123 124 0 255 0
124 125 0 255 0
125 126 0 255 0
126 127 0 255 0
127 128 0 255 0
128 129 0 255 0
129 130 0 255 0
130 131 0 255 0
131 132 0 255 0
132 133 0 255 0
133 134 0 255 0
134 135 0 255 0
135 136 0 255 0
136 89 0 255 0
137 138 0 255 0
138 139 0 255 0
139 140 0 255 0
140 141 0 255 0
141 142 0 255 0
142 143 0 255 0
143 144 0 255 0
144 145 0 255 0
145 146 0 255 0
146 147 0 255 0
147 148 0 255 0
148 149 0 255 0
149 150 0 255 0
150 151 0 255 0
151 152 0 255 0
152 153 0 255 0
153 154 0 255 0
154 155 0 255 0
155 156 0 255 0
156 157 0 255 0
157 158 0 255 0
158 159 0 255 0
159 160 0 255 0
160 161 0 255 0
161 162 0 255 0
162 163 0 255 0
163 164 0 255 0
164 165 0 255 0
165 166 0 255 0
166 167 0 255 0
167 168 0 255 0
168 169 0 255 0
169 170 0 255 0
170 171 0 255 0
171 172 0 255 0
172 173 0 255 0
173 174 0 255 0
174 175 0 255 0
175 176 0 255 0
176 177 0 255 0
177 178 0 255 0
178 179 0 255 0
179 180 0 255 0
180 181 0 255 0
181 182 0 255 0
182 137 0 255 0
183 184 0 255 0
184 185 0 255 0
185 186 0 255 0
186 187 0 255 0
187 188 0 255 0
188 189 0 255 0
189 190 0 255 0
190 191 0 255 0
191 192 0 255 0
192 193 0 255 0
193 194 0 255 0
194 195 0 255 0
195 196 0 255 0
196 197 0 255 0
197 198 0 255 0
198 199 0 255 0
199 200 0 255 0
200 201 0 255 0
201 202 0 255 0
202 183 0 255 0
203 204 0 255 0
204 205 0 255 0
205 206 0 255 0
206 207 0 255 0
207 208 0 255 0
208 209 0 255 0
209 210 0 255 0
210 211 0 255 0
211 212 0 255 0
212 213 0 255 0
213 214 0 255 0
214 215 0 255 0
215 216 0 255 0
216 217 0 255 0
217 218 0 255 0
218 219 0 255 0
219 220 0 255 0
220 221 0 255 0
221 222 0 255 0
222 223 0 255 0
223 224 0 255 0
224 225 0 255 0
225 226 0 255 0
226 227 0 255 0
227 228 0 255 0
228 229 0 255 0
229 230 0 255 0
230 231 0 255 0
231 232 0 255 0
232 233 0 255 0
233 234 0 255 0
234 235 0 255 0
235 236 0 255 0
236 237 0 255 0
237 238 0 255 0
238 239 0 255 0
239 240 0 255 0
240 241 0 255 0
241 242 0 255 0
242 243 0 255 0
243 244 0 255 0
244 245 0 255 0
245 246 0 255 0
246 247 0 255 0
247 248 0 255 0
248 203 0 255 0
249 250 0 255 0
250 251 0 255 0
251 252 0 255 0
252 253 0 255 0
253 254 0 255 0
254 255 0 255 0
255 256 0 255 0
256 257 0 255 0
257 258 0 255 0
258 259 0 255 0
259 260 0 255 0
260 261 0 255 0
261 262 0 255 0
262 263 0 255 0
263 264 0 255 0
264 265 0 255 0
265 266 0 255 0
266 267 0 255 0
267 268 0 255 0
268 269 0 255 0
269 270 0 255 0
270 271 0 255 0
271 272 0 255 0
272 273 0 255 0
273 274 0 255 0
274 275 0 255 0
275 276 0 255 0
276 277 0 255 0
277 278 0 255 0
278 279 0 255 0
279 280 0 255 0
280 281 0 255 0
281 282 0 255 0
282 283 0 255 0
283 284 0 255 0
284 285 0 255 0
285 286 0 255 0
286 287 0 255 0
287 288 0 255 0
288 289 0 255 0
289 290 0 255 0
290 291 0 255 0
291 292 0 255 0
292 293 0 255 0
293 249 0 255 0
294 295 0 255 0
295 296 0 255 0
296 297 0 255 0
297 298 0 255 0
298 299 0 255 0
299 300 0 255 0
300 301 0 255 0
301 302 0 255 0
302 303 0 255 0
303 304 0 255 0
304 305 0 255 0
305 306 0 255 0
306 307 0 255 0
307 308 0 255 0
308 309 0 255 0
309 310 0 255 0
310 311 0 255 0
311 312 0 255 0
312 313 0 255 0
313 314 0 255 0
314 315 0 255 0
315 316 0 255 0
316 317 0 255 0
317 318 0 255 0
318 319 0 255 0
319 320 0 255 0
320 321 0 255 0
321 322 0 255 0
322 323 0 255 0
323 324 0 255 0
324 325 0 255 0
325 326 0 255 0
326 327 0 255 0
327 328 0 255 0
328 329 0 255 0
329 330 0 255 0
330 331 0 255 0
331 332 0 255 0
332 333 0 255 0
333 334 0 255 0
334 335 0 255 0
335 336 0 255 0
336 337 0 255 0
337 338 0 255 0
338 339 0 255 0
339 340 0 255 0
340 341 0 255 0
341 342 0 255 0
342 343 0 255 0
343 344 0 255 0
344 345 0 255 0
345 346 0 255 0
346 347 0 255 0
347 294 0 255 0
348 349 0 255 0
349 350 0 255 0
350 351 0 255 0
351 352 0 255 0
352 353 0 255 0
353 354 0 255 0
354 355 0 255 0
355 356 0 255 0
356 357 0 255 0
357 358 0 255 0
358 359 0 255 0
359 360 0 255 0
360 361 0 255 0
361 362 0 255 0
362 363 0 255 0
363 364 0 255 0
364 365 0 255 0
365 366 0 255 0
366 367 0 255 0
367 368 0 255 0
368 369 0 255 0
369 370 0 255 0
370 371 0 255 0
371 372 0 255 0
372 373 0 255 0
373 374 0 255 0
374 375 0 255 0
375 376 0 255 0
376 377 0 255 0
377 378 0 255 0
378 379 0 255 0
379 380 0 255 0
380 348 0 255 0
381 382 0 255 0
382 383 0 255 0
383 384 0 255 0
384 385 0 255 0
385 386 0 255 0
386 387 0 255 0
387 388 0 255 0
388 389 0 255 0
389 390 0 255 0
390 391 0 255 0
391 392 0 255 0
392 393 0 255 0
393 394 0 255 0
394 395 0 255 0
395 396 0 255 0
396 397 0 255 0
397 398 0 255 0
398 399 0 255 0
399 400 0 255 0
400 401 0 255 0
401 402 0 255 0
402 403 0 255 0
403 404 0 255 0
404 405 0 255 0
405 406 0 255 0
406 407 0 255 0
407 408 0 255 0
408 381 0 255 0
409 410 0 255 0
410 411 0 255 0
411 412 0 255 0
412 413 0 255 0
413 414 0 255 0
414 415 0 255 0
415 416 0 255 0
416 417 0 255 0
417 418 0 255 0
418 419 0 255 0
419 420 0 255 0
420 421 0 255 0
421 422 0 255 0
422 423 0 255 0
423 424 0 255 0
424 425 0 255 0
425 426 0 255 0
426 427 0 255 0
427 428 0 255 0
428 429 0 255 0
429 430 0 255 0
430 431 0 255 0
431 432 0 255 0
432 433 0 255 0
433 434 0 255 0
434 435 0 255 0
435 436 0 255 0
436 437 0 255 0
437 438 0 255 0
438 439 0 255 0
439 440 0 255 0
440 441 0 255 0
441 442 0 255 0
442 443 0 255 0
443 444 0 255 0
444 445 0 255 0
445 446 0 255 0
446 447 0 255 0
447 448 0 255 0
448 449 0 255 0
449 450 0 255 0
450 451 0 255 0
451 452 0 255 0
452 453 0 255 0
453 454 0 255 0
454 455 0 255 0
455 456 0 255 0
456 457 0 255 0
457 458 0 255 0
458 459 0 255 0
459 460 0 255 0
460 461 0 255 0
461 462 0 255 0
462 463 0 255 0
463 409 0 255 0
464 465 0 255 0
465 466 0 255 0
466 467 0 255 0
467 468 0 255 0
468 469 0 255 0
469 470 0 255 0
470 471 0 255 0
471 472 0 255 0
472 473 0 255 0
473 474 0 255 0
474 475 0 255 0
475 476 0 255 0
476 477 0 255 0
477 478 0 255 0
478 479 0 255 0
479 480 0 255 0
480 481 0 255 0
481 482 0 255 0
482 483 0 255 0
483 484 0 255 0
484 485 0 255 0
485 486 0 255 0
486 487 0 255 0
487 488 0 255 0
488 489 0 255 0
489 490 0 255 0
490 491 0 255 0
491 492 0 255 0
492 493 0 255 0
493 494 0 255 0
494 495 0 255 0
495 496 0 255 0
496 497 0 255 0
497 498 0 255 0
498 499 0 255 0
499 500 0 255 0
500 501 0 255 0
501 502 0 255 0
502 503 0 255 0
503 504 0 255 0
504 505 0 255 0
505 506 0 255 0
506 507 0 255 0
507 508 0 255 0
508 509 0 255 0
509 464 0 255 0
510 511 0 255 0
511 512 0 255 0
512 513 0 255 0
513 514 0 255 0
514 515 0 255 0
515 516 0 255 0
516 517 0 255 0
517 518 0 255 0
518 519 0 255 0
519 520 0 255 0
520 521 0 255 0
521 522 0 255 0
522 523 0 255 0
523 524 0 255 0
524 525 0 255 0
525 526 0 255 0
526 510 0 255 0
527 528 0 255 0
528 529 0 255 0
529 530 0 255 0
530 531 0 255 0
531 532 0 255 0
532 533 0 255 0
533 534 0 255 0
534 535 0 255 0
535 536 0 255 0
536 537 0 255 0
537 538 0 255 0
538 539 0 255 0
539 540 0 255 0
540 527 0 255 0
541 542 0 255 0
542 543 0 255 0
543 544 0 255 0
544 545 0 255 0
545 546 0 255 0
546 547 0 255 0
547 548 0 255 0
548 549 0 255 0
549 550 0 255 0
550 551 0 255 0
551 552 0 255 0
552 553 0 255 0
553 554 0 255 0
554 555 0 255 0
555 556 0 255 0
556 557 0 255 0
557 558 0 255 0
558 559 0 255 0
559 541 0 255 0
560 561 0 255 0
561 562 0 255 0
562 563 0 255 0
563 564 0 255 0
564 565 0 255 0
565 566 0 255 0
566 567 0 255 0
567 568 0 255 0
568 569 0 255 0
569 570 0 255 0
570 571 0 255 0
571 572 0 255 0
572 573 0 255 0
573 574 0 255 0
574 560 0 255 0
